LuxiSans-BoldOblique.sfdir
StartChar: quotedbl
Encoding: 34 34 255
Width: 474
Flags: W
LayerCount: 2
Fore
SplineSet
177 482 m 1
 211 771 l 1
 355 771 l 1
 267 482 l 1
 177 482 l 1
394 482 m 1
 427 771 l 1
 572 771 l 1
 484 482 l 1
 394 482 l 1
EndSplineSet
EndChar
StartChar: numbersign
Encoding: 35 35 257
Width: 556
Flags: MW
HStem: 0 20 208 72<83 155 54 187 83 229 262 333 440 525> 443 72<177 261 148 293 177 335 367 439 546 618> 703 20<387 461 461 461 565 639 639 639>
LayerCount: 2
Fore
SplineSet
61 0 m 1
 155 208 l 1
 54 208 l 1
 83 280 l 1
 187 280 l 1
 261 443 l 1
 148 443 l 1
 177 515 l 1
 293 515 l 1
 387 723 l 1
 461 723 l 1
 367 515 l 1
 471 515 l 1
 565 723 l 1
 639 723 l 1
 546 515 l 1
 647 515 l 1
 618 443 l 1
 513 443 l 1
 440 280 l 1
 554 280 l 1
 525 208 l 1
 408 208 l 1
 314 0 l 1
 240 0 l 1
 333 208 l 1
 229 208 l 1
 136 0 l 1
 61 0 l 1
262 280 m 1
 366 280 l 1
 439 443 l 1
 335 443 l 1
 262 280 l 1
EndSplineSet
EndChar
StartChar: dollar
Encoding: 36 36 214
Width: 556
Flags: MW
VStem: 173 129<517 557.5 517 559.5> 395 129<205 219>
LayerCount: 2
Fore
SplineSet
219 -78 m 1
 234 2 l 1
 189 2 139 11 77 31 c 2
 56 38 l 1
 77 145 l 1
 132 112 188 94 252 90 c 1
 299 322 l 1
 277 339 l 2
 192 405 173 435 173 500 c 0
 173 619 253 705 378 722 c 1
 394 801 l 1
 473 801 l 1
 457 722 l 1
 507 719 552 709 594 691 c 1
 575 593 l 1
 516 623 473 637 440 637 c 1
 396 419 l 1
 415 404 l 2
 490 348 524 296 524 235 c 0
 524 175 494 114 440 64 c 0
 402 29 365 11 313 2 c 1
 297 -78 l 1
 219 -78 l 1
353 281 m 1
 317 96 l 1
 370 114 395 148 395 203 c 0
 395 235 383 256 353 281 c 1
341 460 m 1
 376 634 l 1
 331 621 302 582 302 533 c 0
 302 501 314 479 341 460 c 1
EndSplineSet
EndChar
StartChar: percent
Encoding: 37 37 278
Width: 889
Flags: W
HStem: -18 20 0 72<674.5 714.5 674.5 736.5> 289 72<709.5 749.5> 362 72<283 323 283 345.5> 651 72<318.5 358.5> 721 20<828 925 925 925>
VStem: 145 108<477 540.5 477 562> 389 109<544 607.5> 536 108<114.5 178 114.5 199.5> 780 109<182 246>
LayerCount: 2
Fore
SplineSet
108 -18 m 1x87c0
 828 741 l 1
 925 741 l 1
 206 -18 l 1
 108 -18 l 1x87c0
357 723 m 0x7bc0
 451 723 498 678 498 589 c 0
 498 456 409 362 282 362 c 0
 191 362 145 407 145 496 c 0
 145 628 234 723 357 723 c 0x7bc0
343 651 m 0
 294 651 253 582 253 499 c 0
 253 455 268 434 298 434 c 0
 348 434 389 502 389 586 c 0
 389 629 374 651 343 651 c 0
748 361 m 0
 842 361 889 316 889 227 c 0
 889 94 800 0 673 0 c 0
 582 0 536 45 536 134 c 0
 536 265 625 361 748 361 c 0
734 289 m 0
 685 289 644 220 644 136 c 0
 644 93 659 72 690 72 c 0
 739 72 780 140 780 224 c 0
 780 268 765 289 734 289 c 0
EndSplineSet
EndChar
StartChar: ampersand
Encoding: 38 38 249
Width: 722
Flags: W
HStem: -18 93<297.5 324> 0 20 651 91<462.5 502.5>
VStem: 64 146<167.5 207.5> 268 139<555.5 592 555.5 606.5> 538 123<576 616.5>
LayerCount: 2
Fore
SplineSet
684 0 m 1x7c
 514 0 l 1x5c
 490 39 l 1
 419 -1 359 -18 289 -18 c 0x9c
 152 -18 64 56 64 172 c 0
 64 243 92 304 147 353 c 0
 185 387 221 408 293 437 c 1
 276 486 268 522 268 554 c 0
 268 659 371 742 501 742 c 0
 597 742 661 692 661 617 c 0
 661 534 601 472 462 410 c 1
 490 331 523 261 566 193 c 1
 609 242 639 310 657 403 c 1
 779 403 l 1
 752 291 695 198 607 120 c 1
 630 79 657 36 684 0 c 1x7c
339 333 m 2xbc
 327 363 l 1
 245 326 210 279 210 207 c 0
 210 128 260 75 335 75 c 0
 372 75 407 86 446 109 c 1
 405 179 371 251 339 333 c 2xbc
431 477 m 1
 506 515 538 552 538 600 c 0
 538 633 520 651 485 651 c 0
 440 651 407 616 407 568 c 0
 407 543 414 515 431 477 c 1
EndSplineSet
EndChar
StartChar: quotesingle
Encoding: 39 39 254
Width: 238
Flags: W
LayerCount: 2
Fore
SplineSet
165 470 m 1
 195 771 l 1
 352 771 l 1
 255 470 l 1
 165 470 l 1
EndSplineSet
EndChar
StartChar: parenleft
Encoding: 40 40 245
Width: 333
Flags: MW
VStem: 94 127<127.5 274>
LayerCount: 2
Fore
SplineSet
459 777 m 1
 440 684 l 1
 301 563 221 376 221 173 c 0
 221 77 242 10 292 -57 c 1
 273 -150 l 1
 155 -76 94 46 94 209 c 0
 94 339 140 466 227 583 c 0
 291 667 359 724 459 777 c 1
EndSplineSet
EndChar
StartChar: parenright
Encoding: 41 41 246
Width: 333
Flags: MW
VStem: 237 128<353 499.5 353 502>
LayerCount: 2
Fore
SplineSet
0 -150 m 1
 19 -57 l 1
 159 66 237 249 237 454 c 0
 237 550 217 616 167 684 c 1
 186 777 l 1
 304 703 365 581 365 418 c 0
 365 288 319 161 231 44 c 0
 168 -40 100 -97 0 -150 c 1
EndSplineSet
EndChar
StartChar: asterisk
Encoding: 42 42 253
Width: 389
Flags: MW
HStem: 703 20<286 391 391 391>
LayerCount: 2
Fore
SplineSet
342 577 m 1
 470 646 l 1
 482 546 l 1
 349 528 l 1
 351 534 352 543 352 548 c 0
 352 558 349 567 342 577 c 1
344 519 m 1
 429 421 l 1
 331 359 l 1
 296 489 l 1
 316 493 331 503 344 519 c 1
287 489 m 1
 201 359 l 1
 127 421 l 1
 252 519 l 1
 258 503 269 493 287 489 c 1
250 528 m 1
 124 546 l 1
 177 646 l 1
 276 577 l 1
 261 563 253 547 250 528 c 1
286 723 m 1
 391 723 l 1
 336 582 l 1
 327 587 320 589 312 589 c 0
 303 589 295 587 285 582 c 1
 286 723 l 1
EndSplineSet
EndChar
StartChar: plus
Encoding: 43 43 259
Width: 584
Flags: MW
HStem: 248 84<118 300 101 317 118 384 401 583>
LayerCount: 2
Fore
SplineSet
260 48 m 1
 300 248 l 1
 101 248 l 1
 118 332 l 1
 317 332 l 1
 356 530 l 1
 441 530 l 1
 401 332 l 1
 600 332 l 1
 583 248 l 1
 384 248 l 1
 344 48 l 1
 260 48 l 1
EndSplineSet
EndChar
StartChar: comma
Encoding: 44 44 226
Width: 278
Flags: MW
HStem: 0 20
LayerCount: 2
Fore
SplineSet
120 0 m 1
 60 0 l 1
 92 157 l 1
 248 157 l 1
 224 35 l 2
 198 -93 133 -156 29 -156 c 1
 40 -102 l 1
 80 -102 106 -73 117 -15 c 2
 120 0 l 1
EndSplineSet
EndChar
StartChar: hyphen
Encoding: 45 45 241
Width: 333
Flags: MW
HStem: 265 90<89 368 107 350>
LayerCount: 2
Fore
SplineSet
89 265 m 1
 107 355 l 1
 368 355 l 1
 350 265 l 1
 89 265 l 1
EndSplineSet
EndChar
StartChar: period
Encoding: 46 46 222
Width: 278
Flags: MW
HStem: 0 157<61 249 92 218>
LayerCount: 2
Fore
SplineSet
61 0 m 1
 92 157 l 1
 249 157 l 1
 218 0 l 1
 61 0 l 1
EndSplineSet
EndChar
StartChar: slash
Encoding: 47 47 240
Width: 278
Flags: MW
HStem: 703 20<370 457 457 457>
LayerCount: 2
Fore
SplineSet
-64 -145 m 1
 370 723 l 1
 457 723 l 1
 24 -145 l 1
 -64 -145 l 1
EndSplineSet
EndChar
StartChar: zero
Encoding: 48 48 212
Width: 556
Flags: MW
HStem: -18 90<278 313.5 278 324> 651 90<391 428>
VStem: 100 144<152 212 137 297> 462 144<508.5 573 443 586>
LayerCount: 2
Fore
SplineSet
429 741 m 0
 541 741 606 651 606 495 c 0
 606 391 577 270 529 176 c 0
 467 52 374 -18 274 -18 c 0
 164 -18 100 73 100 231 c 0
 100 363 134 486 198 587 c 0
 264 690 341 741 429 741 c 0
411 651 m 0
 371 651 335 603 304 507 c 0
 271 402 244 254 244 170 c 0
 244 104 261 72 295 72 c 0
 332 72 366 113 395 195 c 0
 431 299 462 463 462 554 c 0
 462 618 445 651 411 651 c 0
EndSplineSet
EndChar
StartChar: one
Encoding: 49 49 203
Width: 556
Flags: MW
HStem: 0 84<89 250 106 250 395 523> 721 20<526 526>
LayerCount: 2
Fore
SplineSet
89 0 m 1
 106 84 l 1
 250 84 l 1
 357 618 l 1
 205 582 l 1
 223 669 l 1
 526 741 l 1
 395 84 l 1
 540 84 l 1
 523 0 l 1
 89 0 l 1
EndSplineSet
EndChar
StartChar: two
Encoding: 50 50 204
Width: 556
Flags: MW
HStem: 0 114<38 61 61 61 225 491> 648 93<375 392.5>
VStem: 451 154<531.5 596>
LayerCount: 2
Fore
SplineSet
38 0 m 1
 61 114 l 1
 97 161 136 202 184 243 c 2
 244 294 l 1
 313 353 l 2
 419 442 451 493 451 570 c 0
 451 622 422 648 363 648 c 0
 315 648 258 632 175 594 c 1
 197 700 l 1
 284 729 344 741 406 741 c 0
 538 741 605 686 605 580 c 0
 605 481 553 406 414 306 c 2
 358 265 l 2
 286 213 241 162 225 114 c 1
 514 114 l 1
 491 0 l 1
 38 0 l 1
EndSplineSet
EndChar
StartChar: three
Encoding: 51 51 205
Width: 556
Flags: W
HStem: -18 90<225.5 290.5 225.5 319.5> 651 90<368.5 382.5>
VStem: 391 150<177.5 264> 441 152<569.5 602.5>
LayerCount: 2
Fore
SplineSet
68 5 m 1xe0
 90 114 l 1
 165 83 207 72 244 72 c 0
 337 72 391 129 391 226 c 0xe0
 391 302 346 337 246 337 c 2
 227 337 l 1
 201 337 l 1
 218 424 l 1
 376 425 441 470 441 577 c 0
 441 628 413 651 352 651 c 0
 301 651 255 639 199 610 c 1
 218 709 l 1
 282 731 336 741 401 741 c 0
 530 741 593 694 593 598 c 0xd0
 593 541 568 490 521 452 c 0
 487 424 457 409 394 388 c 1
 497 360 541 312 541 229 c 0
 541 89 407 -18 232 -18 c 0
 180 -18 127 -11 68 5 c 1xe0
EndSplineSet
EndChar
StartChar: four
Encoding: 52 52 206
Width: 556
Flags: MW
HStem: 0 20 193 108<54 76 76 76 192 367 515 560> 703 20<468 600 600 600>
LayerCount: 2
Fore
SplineSet
54 193 m 1
 76 301 l 1
 468 723 l 1
 600 723 l 1
 515 301 l 1
 582 301 l 1
 560 193 l 1
 494 193 l 1
 455 0 l 1
 329 0 l 1
 367 193 l 1
 54 193 l 1
192 301 m 1
 392 301 l 1
 449 585 l 1
 192 301 l 1
EndSplineSet
EndChar
StartChar: five
Encoding: 53 53 207
Width: 556
Flags: MW
HStem: -18 90<217 277 214.5 320.5> 609 114<330 603 330 330>
VStem: 387 157<195 284.5>
LayerCount: 2
Fore
SplineSet
90 3 m 1
 111 108 l 1
 158 83 196 72 233 72 c 0
 321 72 387 146 387 244 c 0
 387 325 334 365 228 365 c 0
 211 365 197 364 174 360 c 1
 247 723 l 1
 626 723 l 1
 603 609 l 1
 330 609 l 1
 291 454 l 1
 455 451 544 385 544 265 c 0
 544 107 407 -18 234 -18 c 0
 200 -18 159 -12 90 3 c 1
EndSplineSet
EndChar
StartChar: six
Encoding: 54 54 208
Width: 556
Flags: MW
HStem: -18 90<277.5 341 277.5 363> 377 89<386.5 390.5> 651 90<430.5 488>
VStem: 81 143<141 230 140.5 294> 437 136<227.5 318>
LayerCount: 2
Fore
SplineSet
627 719 m 1
 606 613 l 1
 545 640 505 651 471 651 c 0
 365 651 291 562 256 395 c 1
 312 446 357 466 416 466 c 0
 520 466 573 411 573 302 c 0
 573 122 445 -18 281 -18 c 0
 147 -18 81 61 81 221 c 0
 81 367 127 500 212 605 c 0
 288 696 377 741 484 741 c 0
 525 741 569 734 627 719 c 1
367 377 m 0
 288 377 224 286 224 174 c 0
 224 107 251 72 304 72 c 0
 378 72 437 167 437 288 c 0
 437 348 414 377 367 377 c 0
EndSplineSet
EndChar
StartChar: seven
Encoding: 55 55 209
Width: 556
Flags: MW
HStem: 0 20 606 117<200 516 176 658 634 634>
LayerCount: 2
Fore
SplineSet
247 0 m 1
 86 0 l 1
 121 107 174 186 365 421 c 2
 516 606 l 1
 176 606 l 1
 200 723 l 1
 658 723 l 1
 634 606 l 1
 415 365 287 165 247 0 c 1
EndSplineSet
EndChar
StartChar: eight
Encoding: 56 56 210
Width: 556
Flags: W
HStem: -18 89<279 345 279 359> 651 90<395 445.5>
VStem: 78 141<129.5 185> 194 130<536.5 581 536.5 584> 437 138<165 209.5> 489 128<568 610>
LayerCount: 2
Fore
SplineSet
259 389 m 1xe8
 212 438 194 473 194 520 c 0
 194 648 301 741 449 741 c 0
 560 741 617 696 617 609 c 0xd4
 617 527 572 464 468 397 c 1
 545 338 575 292 575 234 c 0
 575 96 441 -18 277 -18 c 0
 153 -18 78 40 78 135 c 0
 78 235 128 306 259 389 c 1xe8
388 451 m 2
 401 438 l 1
 461 480 489 528 489 589 c 0
 489 631 468 651 423 651 c 0
 367 651 324 609 324 553 c 0
 324 520 337 499 388 451 c 2
366 301 m 2xe8
 322 341 l 1
 250 282 219 226 219 158 c 0
 219 101 249 71 309 71 c 0
 381 71 437 125 437 195 c 0
 437 224 416 255 366 301 c 2xe8
EndSplineSet
EndChar
StartChar: nine
Encoding: 57 57 211
Width: 556
Flags: MW
HStem: -18 90<213.5 270.5> 257 89<310.5 314.5> 651 90<360.5 424>
VStem: 128 136<405 495 405 511> 477 143<492.5 582>
LayerCount: 2
Fore
SplineSet
74 4 m 1
 95 110 l 1
 157 83 197 72 230 72 c 0
 336 72 410 160 445 328 c 1
 389 277 344 257 285 257 c 0
 181 257 128 312 128 421 c 0
 128 601 256 741 420 741 c 0
 554 741 620 663 620 502 c 0
 620 356 574 222 489 118 c 0
 414 27 324 -18 217 -18 c 0
 176 -18 132 -11 74 4 c 1
398 651 m 0
 323 651 264 555 264 435 c 0
 264 375 287 346 334 346 c 0
 413 346 477 437 477 548 c 0
 477 616 450 651 398 651 c 0
EndSplineSet
EndChar
StartChar: semicolon
Encoding: 59 59 227
Width: 333
Flags: MW
HStem: 0 20 391 145<172 346 202 317>
LayerCount: 2
Fore
SplineSet
148 0 m 1
 94 0 l 1
 123 145 l 1
 268 145 l 1
 246 36 l 2
 221 -84 161 -147 63 -156 c 1
 74 -102 l 1
 112 -92 136 -62 146 -15 c 2
 148 0 l 1
172 391 m 1
 202 536 l 1
 346 536 l 1
 317 391 l 1
 172 391 l 1
EndSplineSet
EndChar
StartChar: less
Encoding: 60 60 300
Width: 584
Flags: W
LayerCount: 2
Fore
SplineSet
543 48 m 1
 109 289 l 1
 639 530 l 1
 620 436 l 1
 298 289 l 1
 298 288 l 1
 562 142 l 1
 543 48 l 1
EndSplineSet
EndChar
StartChar: equal
Encoding: 61 61 263
Width: 584
Flags: MW
HStem: 151 84<81 580 98 563> 344 84<120 618 136 602>
LayerCount: 2
Fore
SplineSet
81 151 m 1
 98 235 l 1
 580 235 l 1
 563 151 l 1
 81 151 l 1
120 344 m 1
 136 428 l 1
 618 428 l 1
 602 344 l 1
 120 344 l 1
EndSplineSet
EndChar
StartChar: greater
Encoding: 62 62 301
Width: 584
Flags: W
LayerCount: 2
Fore
SplineSet
158 530 m 1
 591 289 l 1
 61 48 l 1
 80 142 l 1
 402 288 l 1
 402 289 l 1
 139 436 l 1
 158 530 l 1
EndSplineSet
EndChar
StartChar: question
Encoding: 63 63 234
Width: 611
Flags: MW
HStem: 0 121<188 357 212 333> 645 96<391.5 435.5>
VStem: 514 162<563.5 597>
LayerCount: 2
Fore
SplineSet
188 0 m 1
 212 121 l 1
 357 121 l 1
 333 0 l 1
 188 0 l 1
374 205 m 1
 229 205 l 1
 232 219 l 2
 249 301 280 342 366 398 c 2
 422 434 l 2
 482 473 514 521 514 572 c 0
 514 622 476 645 395 645 c 0
 318 645 248 632 166 601 c 1
 188 712 l 1
 276 732 351 741 432 741 c 0
 595 741 676 695 676 603 c 0
 676 524 639 478 521 415 c 2
 476 391 l 2
 417 358 399 331 382 246 c 2
 374 205 l 1
EndSplineSet
EndChar
StartChar: at
Encoding: 64 64 256
Width: 975
Flags: MW
HStem: -18 63<360.5 442> 144 68<624 726.5> 512 61<600.5 625.5> 678 63<652 754>
VStem: 151 65<177.5 278 177.5 290> 321 93<245.5 261> 906 65<451.5 540>
LayerCount: 2
Fore
SplineSet
584 80 m 1
 593 22 l 1
 525 -6 472 -18 412 -18 c 0
 251 -18 151 75 151 226 c 0
 151 354 242 513 376 618 c 0
 476 697 596 741 708 741 c 0
 864 741 971 642 971 496 c 0
 971 407 937 323 872 252 c 0
 807 181 730 144 647 144 c 0
 601 144 577 158 577 186 c 0
 577 203 591 238 628 310 c 1
 618 310 l 1
 544 209 454 145 388 145 c 0
 344 145 321 172 321 225 c 0
 321 297 359 377 433 459 c 0
 501 535 568 573 633 573 c 0
 643 573 653 572 668 570 c 0
 683 567 709 566 731 566 c 2
 796 566 l 1
 688 293 l 2
 676 264 671 246 671 234 c 0
 671 219 682 212 703 212 c 0
 750 212 796 241 840 300 c 0
 884 358 906 420 906 482 c 0
 906 598 818 678 690 678 c 0
 556 678 434 617 332 497 c 0
 255 407 216 319 216 237 c 0
 216 118 295 45 426 45 c 0
 477 45 525 56 584 80 c 1
645 403 m 1
 682 493 l 1
 656 506 636 512 615 512 c 0
 562 512 514 477 469 406 c 0
 433 349 414 297 414 258 c 0
 414 233 423 220 439 220 c 0
 475 220 562 298 645 403 c 1
EndSplineSet
EndChar
StartChar: B
Encoding: 66 66 134
Width: 722
Flags: W
HStem: 0 103<246 382 382 448.5 246 456> 325 97<310 424 291 450> 624 99<350 485 350 350>
VStem: 570 155<175.5 248.5> 614 158<543 584.5>
LayerCount: 2
Fore
SplineSet
84 0 m 1xf0
 229 723 l 1
 578 723 l 2
 708 723 772 679 772 591 c 0xe8
 772 495 698 420 559 377 c 1
 676 344 725 295 725 211 c 0
 725 85 617 0 456 0 c 2
 84 0 l 1xf0
310 422 m 1
 450 422 l 2
 544 422 614 481 614 560 c 0
 614 609 585 624 485 624 c 2
 350 624 l 1
 310 422 l 1
246 103 m 1xf0
 382 103 l 2
 515 103 570 136 570 215 c 0
 570 282 513 325 424 325 c 2
 291 325 l 1
 246 103 l 1xf0
EndSplineSet
EndChar
StartChar: C
Encoding: 67 67 135
Width: 722
Flags: MW
HStem: -18 104<413.5 481.5> 642 99<533 618>
VStem: 108 162<219.5 331.5 219.5 344.5>
LayerCount: 2
Fore
SplineSet
721 140 m 1
 699 29 l 1
 616 -3 532 -18 431 -18 c 0
 213 -18 108 75 108 266 c 0
 108 423 178 570 293 658 c 0
 369 715 462 741 594 741 c 0
 676 741 748 733 829 713 c 1
 805 595 l 1
 715 629 651 642 585 642 c 0
 481 642 405 606 349 532 c 0
 298 463 270 376 270 287 c 0
 270 152 341 86 486 86 c 0
 564 86 637 103 721 140 c 1
EndSplineSet
EndChar
StartChar: D
Encoding: 68 68 136
Width: 722
Flags: MW
HStem: 0 20 624 99<359 427 359 359>
VStem: 604 163<413 502>
LayerCount: 2
Fore
SplineSet
84 0 m 1
 229 723 l 1
 480 723 l 2
 673 723 767 639 767 468 c 0
 767 358 731 252 665 164 c 0
 582 54 469 0 322 0 c 2
 84 0 l 1
255 103 m 1
 308 103 l 2
 411 103 484 138 535 214 c 0
 579 280 604 361 604 441 c 0
 604 563 545 624 427 624 c 2
 359 624 l 1
 255 103 l 1
EndSplineSet
EndChar
StartChar: F
Encoding: 70 70 138
Width: 611
Flags: MW
HStem: 0 20 304 100<315 594 295 614> 624 99<359 712 359 359>
LayerCount: 2
Fore
SplineSet
84 0 m 1
 229 723 l 1
 732 723 l 1
 712 624 l 1
 359 624 l 1
 315 404 l 1
 614 404 l 1
 594 304 l 1
 295 304 l 1
 234 0 l 1
 84 0 l 1
EndSplineSet
EndChar
StartChar: G
Encoding: 71 71 139
Width: 778
Flags: MW
HStem: -19 102<412 494.5> 252 99<509 612 490 782> 642 99<534 620>
VStem: 108 162<217 328.5 217 344>
LayerCount: 2
Fore
SplineSet
782 351 m 1
 715 17 l 1
 610 -8 534 -19 455 -19 c 0
 213 -19 108 67 108 266 c 0
 108 422 178 570 293 658 c 0
 369 716 463 741 605 741 c 0
 696 741 772 733 854 713 c 1
 831 595 l 1
 731 628 655 642 585 642 c 0
 482 642 406 606 350 531 c 0
 299 462 270 373 270 284 c 0
 270 150 341 83 483 83 c 0
 507 83 540 86 580 90 c 1
 612 252 l 1
 490 252 l 1
 509 351 l 1
 782 351 l 1
EndSplineSet
EndChar
StartChar: H
Encoding: 72 72 140
Width: 722
Flags: MW
HStem: 0 20 329 100<320 553 301 573> 703 20<229 379 379 379 631 782 782 782>
LayerCount: 2
Fore
SplineSet
84 0 m 1
 229 723 l 1
 379 723 l 1
 320 429 l 1
 573 429 l 1
 631 723 l 1
 782 723 l 1
 637 0 l 1
 487 0 l 1
 553 329 l 1
 301 329 l 1
 234 0 l 1
 84 0 l 1
EndSplineSet
EndChar
StartChar: I
Encoding: 73 73 141
Width: 278
Flags: MW
HStem: 0 20 703 20<208 358 358 358>
LayerCount: 2
Fore
SplineSet
63 0 m 1
 208 723 l 1
 358 723 l 1
 213 0 l 1
 63 0 l 1
EndSplineSet
EndChar
StartChar: J
Encoding: 74 74 142
Width: 556
Flags: MW
HStem: -144 102<136.5 213 136.5 247> 703 20<448 598 598 598>
LayerCount: 2
Fore
SplineSet
-36 -119 m 1
 -15 -11 l 1
 55 -33 109 -42 164 -42 c 0
 262 -42 301 -9 321 90 c 2
 448 723 l 1
 598 723 l 1
 475 106 l 2
 440 -68 342 -144 152 -144 c 0
 93 -144 38 -137 -36 -119 c 1
EndSplineSet
EndChar
StartChar: K
Encoding: 75 75 143
Width: 722
Flags: MW
HStem: 0 20 703 20<229 373 373 373 674 798 798 798>
LayerCount: 2
Fore
SplineSet
84 0 m 1
 229 723 l 1
 373 723 l 1
 303 372 l 1
 674 723 l 1
 798 723 l 1
 459 399 l 1
 714 0 l 1
 526 0 l 1
 300 356 l 1
 229 0 l 1
 84 0 l 1
EndSplineSet
EndChar
StartChar: L
Encoding: 76 76 144
Width: 611
Flags: MW
HStem: 0 103<255 602> 703 20<229 379 379 379>
LayerCount: 2
Fore
SplineSet
84 0 m 1
 229 723 l 1
 379 723 l 1
 255 103 l 1
 622 103 l 1
 602 0 l 1
 84 0 l 1
EndSplineSet
EndChar
StartChar: M
Encoding: 77 77 145
Width: 833
Flags: MW
HStem: 0 20 703 20<229 428 428 428 718 893 893 893>
LayerCount: 2
Fore
SplineSet
84 0 m 1
 229 723 l 1
 428 723 l 1
 469 214 l 1
 718 723 l 1
 893 723 l 1
 749 0 l 1
 610 0 l 1
 719 546 l 1
 475 48 l 1
 353 48 l 1
 313 553 l 1
 202 0 l 1
 84 0 l 1
EndSplineSet
EndChar
StartChar: N
Encoding: 78 78 146
Width: 722
Flags: MW
HStem: 0 20 703 20<229 361 361 361 662 782 782 782>
LayerCount: 2
Fore
SplineSet
84 0 m 1
 229 723 l 1
 361 723 l 1
 563 229 l 1
 662 723 l 1
 782 723 l 1
 637 0 l 1
 503 0 l 1
 303 494 l 1
 205 0 l 1
 84 0 l 1
EndSplineSet
EndChar
StartChar: O
Encoding: 79 79 147
Width: 778
Flags: MW
HStem: -18 99<359.5 436.5 359.5 454.5> 642 99<474.5 569.5>
VStem: 107 159<204 323.5> 667 160<400 518.5>
LayerCount: 2
Fore
SplineSet
543 741 m 0
 732 741 827 646 827 459 c 0
 827 341 789 230 717 137 c 0
 635 33 526 -18 383 -18 c 0
 200 -18 107 77 107 264 c 0
 107 383 145 494 217 586 c 0
 299 690 406 741 543 741 c 0
521 642 m 0
 379 642 266 475 266 266 c 0
 266 142 312 81 407 81 c 0
 466 81 518 105 560 151 c 0
 628 225 667 336 667 457 c 0
 667 580 618 642 521 642 c 0
EndSplineSet
EndChar
StartChar: P
Encoding: 80 80 148
Width: 667
Flags: MW
HStem: 0 20 283 99<308 379 379 393 288 379> 624 99<356 456 356 356>
VStem: 599 159<491 572.5>
LayerCount: 2
Fore
SplineSet
84 0 m 1
 229 723 l 1
 522 723 l 2
 703 723 758 690 758 581 c 0
 758 398 617 283 393 283 c 2
 288 283 l 1
 231 0 l 1
 84 0 l 1
308 382 m 1
 379 382 l 2
 516 382 599 442 599 540 c 0
 599 605 566 624 456 624 c 2
 356 624 l 1
 308 382 l 1
EndSplineSet
EndChar
StartChar: Q
Encoding: 81 81 149
Width: 778
Flags: MW
HStem: -18 100<364.5 385.5> 642 99<474.5 569.5>
VStem: 107 160<204 324> 667 159<362.5 518.5>
LayerCount: 2
Fore
SplineSet
846 -48 m 1
 730 -145 l 1
 606 -110 510 -67 439 -16 c 1
 407 -17 392 -18 379 -18 c 0
 203 -18 107 82 107 265 c 0
 107 383 145 494 217 586 c 0
 298 690 406 741 543 741 c 0
 731 741 826 646 826 458 c 0
 826 267 737 113 571 17 c 1
 659 -16 751 -38 846 -48 c 1
521 642 m 0
 379 642 267 476 267 265 c 0
 267 143 316 82 413 82 c 0
 554 82 667 249 667 457 c 0
 667 580 618 642 521 642 c 0
EndSplineSet
EndChar
StartChar: R
Encoding: 82 82 150
Width: 722
Flags: MW
HStem: 0 20 296 99<305 383 383 402 285 383> 624 99<351 447 351 351>
VStem: 577 155<531.5 573>
LayerCount: 2
Fore
SplineSet
84 0 m 1
 229 723 l 1
 543 723 l 2
 669 723 732 676 732 582 c 0
 732 481 661 387 546 338 c 1
 715 0 l 1
 546 0 l 1
 402 296 l 1
 285 296 l 1
 226 0 l 1
 84 0 l 1
305 395 m 1
 383 395 l 2
 496 395 577 458 577 547 c 0
 577 599 535 624 447 624 c 2
 351 624 l 1
 305 395 l 1
EndSplineSet
EndChar
StartChar: S
Encoding: 83 83 151
Width: 667
Flags: MW
HStem: -18 99<282 365> 642 99<421 518>
VStem: 151 156<528.5 573.5> 509 166<163.5 283.5>
LayerCount: 2
Fore
SplineSet
51 6 m 1
 75 129 l 1
 171 95 242 81 322 81 c 0
 443 81 509 124 509 203 c 0
 509 232 493 254 461 267 c 2
 400 292 l 1
 326 322 l 2
 191 378 151 417 151 495 c 0
 151 652 276 741 496 741 c 0
 574 741 645 733 722 716 c 1
 699 602 l 1
 620 630 556 642 480 642 c 0
 362 642 307 611 307 543 c 0
 307 514 326 494 373 475 c 2
 424 453 l 1
 501 423 l 2
 620 375 675 319 675 248 c 0
 675 194 654 136 620 93 c 0
 561 19 448 -18 282 -18 c 0
 232 -18 179 -14 126 -5 c 2
 51 6 l 1
EndSplineSet
EndChar
StartChar: T
Encoding: 84 84 152
Width: 611
Flags: MW
HStem: 0 20 624 99<164 355 144 736 506 506 506 716>
LayerCount: 2
Fore
SplineSet
230 0 m 1
 355 624 l 1
 144 624 l 1
 164 723 l 1
 736 723 l 1
 716 624 l 1
 506 624 l 1
 381 0 l 1
 230 0 l 1
EndSplineSet
EndChar
StartChar: V
Encoding: 86 86 154
Width: 667
Flags: MW
HStem: 0 20 703 20<157 318 318 318 689 800 800 800>
LayerCount: 2
Fore
SplineSet
263 0 m 1
 157 723 l 1
 318 723 l 1
 399 183 l 1
 689 723 l 1
 800 723 l 1
 414 0 l 1
 263 0 l 1
EndSplineSet
EndChar
StartChar: W
Encoding: 87 87 155
Width: 944
Flags: MW
HStem: 0 20 703 20<157 299 299 299 573 699 699 699 970 1077 1077 1077>
LayerCount: 2
Fore
SplineSet
198 0 m 1
 157 723 l 1
 299 723 l 1
 331 194 l 1
 573 723 l 1
 699 723 l 1
 717 192 l 1
 970 723 l 1
 1077 723 l 1
 732 0 l 1
 588 0 l 1
 570 496 l 1
 342 0 l 1
 198 0 l 1
EndSplineSet
EndChar
StartChar: X
Encoding: 88 88 156
Width: 667
Flags: MW
HStem: 0 20 703 20<179 354 354 354 660 782 782 782>
LayerCount: 2
Fore
SplineSet
24 0 m 1
 327 356 l 1
 179 723 l 1
 354 723 l 1
 453 480 l 1
 660 723 l 1
 782 723 l 1
 492 382 l 1
 645 0 l 1
 470 0 l 1
 365 258 l 1
 146 0 l 1
 24 0 l 1
EndSplineSet
EndChar
StartChar: Y
Encoding: 89 89 157
Width: 667
Flags: MW
HStem: 0 20 703 20<158 325 325 325 679 798 798 798>
LayerCount: 2
Fore
SplineSet
253 0 m 1
 314 303 l 1
 158 723 l 1
 325 723 l 1
 436 418 l 1
 679 723 l 1
 798 723 l 1
 465 304 l 1
 404 0 l 1
 253 0 l 1
EndSplineSet
EndChar
StartChar: Z
Encoding: 90 90 158
Width: 611
Flags: MW
HStem: 0 103<46 67 67 67 241 566> 624 99<212 515 192 710 690 690>
LayerCount: 2
Fore
SplineSet
46 0 m 1
 67 103 l 1
 515 624 l 1
 192 624 l 1
 212 723 l 1
 710 723 l 1
 690 624 l 1
 241 103 l 1
 586 103 l 1
 566 0 l 1
 46 0 l 1
EndSplineSet
EndChar
StartChar: bracketleft
Encoding: 91 91 247
Width: 333
Flags: MW
HStem: -145 84<186 275> 687 84<336 441 336 336>
LayerCount: 2
Fore
SplineSet
49 -145 m 1
 232 771 l 1
 458 771 l 1
 441 687 l 1
 336 687 l 1
 186 -61 l 1
 292 -61 l 1
 275 -145 l 1
 49 -145 l 1
EndSplineSet
EndChar
StartChar: backslash
Encoding: 92 92 280
Width: 278
Flags: MW
HStem: 703 20<109 197 197 197>
LayerCount: 2
Fore
SplineSet
196 -145 m 1
 109 723 l 1
 197 723 l 1
 284 -145 l 1
 196 -145 l 1
EndSplineSet
EndChar
StartChar: bracketright
Encoding: 93 93 248
Width: 333
Flags: MW
HStem: -145 84<17 122 17 226 0 122> 687 84<183 271 166 409>
LayerCount: 2
Fore
SplineSet
226 -145 m 1
 0 -145 l 1
 17 -61 l 1
 122 -61 l 1
 271 687 l 1
 166 687 l 1
 183 771 l 1
 409 771 l 1
 226 -145 l 1
EndSplineSet
EndChar
StartChar: asciicircum
Encoding: 94 94 303
Width: 584
Flags: MW
HStem: 703 20<437 437>
LayerCount: 2
Fore
SplineSet
133 289 m 1
 437 723 l 1
 567 289 l 1
 473 289 l 1
 400 533 l 1
 399 533 l 1
 228 289 l 1
 133 289 l 1
EndSplineSet
EndChar
StartChar: underscore
Encoding: 95 95 306
Width: 556
Flags: MW
HStem: -78 78<-16 556 0 540>
LayerCount: 2
Fore
SplineSet
-16 -78 m 1
 0 0 l 1
 556 0 l 1
 540 -78 l 1
 -16 -78 l 1
EndSplineSet
EndChar
StartChar: grave
Encoding: 96 96 285
Width: 333
Flags: W
LayerCount: 2
Fore
SplineSet
417 626 m 1
 323 626 l 1
 198 783 l 1
 330 783 l 1
 417 626 l 1
EndSplineSet
EndChar
StartChar: b
Encoding: 98 98 167
Width: 611
Flags: W
HStem: -12 89<305.5 362.5 305 409.5> 0 20 528 20<465 543.5>
VStem: 481 156<268.5 377>
LayerCount: 2
Fore
SplineSet
217 0 m 1x50
 72 0 l 1x50
 226 771 l 1
 371 771 l 1
 306 447 l 1
 376 518 433 548 497 548 c 0
 590 548 637 486 637 363 c 0
 637 150 500 -12 319 -12 c 0xb0
 292 -12 263 -9 217 0 c 1x50
287 350 m 1x90
 234 86 l 1
 270 80 296 77 314 77 c 0
 411 77 481 190 481 347 c 0
 481 407 461 435 418 435 c 0
 378 435 339 409 287 350 c 1x90
EndSplineSet
EndChar
StartChar: f
Encoding: 102 102 171
Width: 333
Flags: MW
HStem: 0 20 446 90<134 171 116 189 334 406> 693 90<407 438>
LayerCount: 2
Fore
SplineSet
82 0 m 1
 171 446 l 1
 116 446 l 1
 134 536 l 1
 189 536 l 1
 197 575 l 2
 226 713 303 783 428 783 c 0
 456 783 482 779 515 770 c 1
 496 677 l 1
 469 688 448 693 428 693 c 0
 386 693 358 656 343 580 c 2
 334 536 l 1
 424 536 l 1
 406 446 l 1
 316 446 l 1
 227 0 l 1
 82 0 l 1
EndSplineSet
EndChar
StartChar: h
Encoding: 104 104 173
Width: 611
Flags: MW
HStem: 0 20 528 20<476 549>
LayerCount: 2
Fore
SplineSet
72 0 m 1
 226 771 l 1
 371 771 l 1
 306 447 l 1
 381 518 441 548 511 548 c 0
 587 548 627 512 627 442 c 0
 627 424 624 399 620 379 c 2
 545 0 l 1
 400 0 l 1
 468 343 l 2
 472 362 475 383 475 394 c 0
 475 421 459 435 429 435 c 0
 389 435 346 409 286 350 c 1
 217 0 l 1
 72 0 l 1
EndSplineSet
EndChar
StartChar: i
Encoding: 105 105 174
Width: 278
Flags: MW
HStem: 0 20 516 20<174 319 319 319> 626 121<192 361 216 337>
LayerCount: 2
Fore
SplineSet
67 0 m 1
 174 536 l 1
 319 536 l 1
 212 0 l 1
 67 0 l 1
192 626 m 1
 216 747 l 1
 361 747 l 1
 337 626 l 1
 192 626 l 1
EndSplineSet
EndChar
StartChar: j
Encoding: 106 106 175
Width: 278
Flags: MW
HStem: -205 90<-29 4 -29 45> 0 20 516 20<175 319 319 319> 626 121<181 349 205 326>
LayerCount: 2
Fore
SplineSet
-112 -185 m 1
 -93 -89 l 1
 -60 -107 -38 -115 -20 -115 c 0
 28 -115 51 -86 68 0 c 2
 175 536 l 1
 319 536 l 1
 214 9 l 2
 186 -132 107 -205 -17 -205 c 0
 -48 -205 -75 -199 -112 -185 c 1
181 626 m 1
 205 747 l 1
 349 747 l 1
 326 626 l 1
 181 626 l 1
EndSplineSet
EndChar
StartChar: k
Encoding: 107 107 176
Width: 556
Flags: MW
HStem: 0 20 516 20<502 621 621 621>
LayerCount: 2
Fore
SplineSet
72 0 m 1
 226 771 l 1
 371 771 l 1
 274 286 l 1
 283 286 l 1
 502 536 l 1
 621 536 l 1
 418 303 l 1
 551 0 l 1
 397 0 l 1
 280 268 l 1
 270 268 l 1
 217 0 l 1xc0
 72 0 l 1
EndSplineSet
EndChar
StartChar: l
Encoding: 108 108 177
Width: 278
Flags: MW
HStem: 0 20
LayerCount: 2
Fore
SplineSet
67 0 m 1
 221 771 l 1
 366 771 l 1
 212 0 l 1x80
 67 0 l 1
EndSplineSet
EndChar
StartChar: m
Encoding: 109 109 178
Width: 889
Flags: W
HStem: 0 20 516 20<179 324 324 324> 528 20<458 527.5 759.5 832>
LayerCount: 2
Fore
SplineSet
72 0 m 1xa0
 179 536 l 1
 324 536 l 1xc0
 306 447 l 1
 368 518 424 548 492 548 c 0
 563 548 599 517 609 446 c 1
 667 517 723 548 796 548 c 0
 868 548 905 513 905 442 c 0
 905 424 902 397 899 379 c 2
 822 0 l 1
 678 0 l 1
 747 343 l 2
 751 364 754 387 754 398 c 0
 754 423 741 435 715 435 c 0
 674 435 636 409 590 350 c 1
 520 0 l 1
 375 0 l 1
 444 343 l 2
 448 367 451 387 451 398 c 0
 451 423 438 435 412 435 c 0
 371 435 333 409 287 350 c 1
 217 0 l 1
 72 0 l 1xa0
EndSplineSet
EndChar
StartChar: n
Encoding: 110 110 179
Width: 611
Flags: W
HStem: 0 20 516 20<179 324 324 324> 528 20<476 549>
LayerCount: 2
Fore
SplineSet
72 0 m 1
 179 536 l 1
 324 536 l 1xc0
 306 447 l 1
 381 518 441 548 511 548 c 0
 587 548 627 512 627 442 c 0
 627 424 624 399 620 379 c 2
 545 0 l 1
 400 0 l 1
 468 343 l 2
 472 362 475 383 475 394 c 0
 475 421 459 435 429 435 c 0
 389 435 346 409 286 350 c 1
 217 0 l 1xa0
 72 0 l 1
EndSplineSet
EndChar
StartChar: p
Encoding: 112 112 181
Width: 611
Flags: W
HStem: -12 89<306 362.5 305.5 410.5> 0 20 516 20<180 325 325 325> 528 20<465 543.5>
VStem: 481 156<268.5 377>
LayerCount: 2
Fore
SplineSet
179 -193 m 1x48
 34 -193 l 1
 180 536 l 1
 325 536 l 1xa8
 307 447 l 1
 377 518 433 548 497 548 c 0
 590 548 637 486 637 364 c 0
 637 150 501 -12 320 -12 c 0x98
 292 -12 263 -9 217 0 c 1
 179 -193 l 1x48
287 350 m 1
 235 86 l 1
 271 80 297 77 314 77 c 0
 411 77 481 190 481 347 c 0
 481 407 461 435 418 435 c 0
 379 435 339 409 287 350 c 1
EndSplineSet
EndChar
StartChar: q
Encoding: 113 113 182
Width: 611
Flags: W
HStem: -12 20 459 89<357.5 414 310 414.5> 516 20<503 647 647 647>
VStem: 83 156<159 267.5 159 279.5>
LayerCount: 2
Fore
SplineSet
357 -193 m 1x30
 413 89 l 1
 343 18 287 -12 223 -12 c 0
 130 -12 83 50 83 173 c 0
 83 386 220 548 400 548 c 0xd0
 428 548 456 545 503 536 c 1
 647 536 l 1
 501 -193 l 1
 357 -193 l 1x30
433 186 m 1
 486 450 l 1
 449 456 423 459 406 459 c 0
 309 459 239 346 239 189 c 0
 239 129 259 101 302 101 c 0
 341 101 380 126 433 186 c 1
EndSplineSet
EndChar
StartChar: r
Encoding: 114 114 183
Width: 389
Flags: W
HStem: 0 20 427 121<393 461> 516 20<191 336 336 336>
LayerCount: 2
Fore
SplineSet
84 0 m 1
 191 536 l 1
 336 536 l 1xa0
 318 447 l 1
 362 517 405 548 457 548 c 0
 465 548 473 547 482 545 c 1
 456 416 l 1
 439 424 425 427 412 427 c 0
 374 427 340 404 299 352 c 1
 229 0 l 1xc0
 84 0 l 1
EndSplineSet
EndChar
StartChar: t
Encoding: 116 116 185
Width: 333
Flags: W
HStem: -12 20 0 20 446 90<139 169 121 188 332 410>
VStem: 106 146<108 110.5>
LayerCount: 2
Fore
SplineSet
344 91 m 1xb0
 326 0 l 1x50
 283 -8 255 -12 230 -12 c 0
 147 -12 106 26 106 102 c 0
 106 119 109 142 113 164 c 2
 169 446 l 1
 121 446 l 1
 139 536 l 1
 188 536 l 1
 206 626 l 1
 354 643 l 1
 332 536 l 1
 428 536 l 1
 410 446 l 1
 314 446 l 1
 261 183 l 2
 254 148 252 132 252 120 c 0
 252 96 266 84 293 84 c 0
 307 84 323 86 344 91 c 1xb0
EndSplineSet
EndChar
StartChar: v
Encoding: 118 118 187
Width: 556
Flags: MW
HStem: 0 20 516 20<120 273 273 273 544 652 652 652>
LayerCount: 2
Fore
SplineSet
205 0 m 1
 120 536 l 1
 273 536 l 1
 332 159 l 1
 544 536 l 1
 652 536 l 1
 350 0 l 1
 205 0 l 1
EndSplineSet
EndChar
StartChar: w
Encoding: 119 119 188
Width: 778
Flags: MW
HStem: 0 20 516 20<137 267 267 267 452 577 577 577 758 855 855 855>
LayerCount: 2
Fore
SplineSet
159 0 m 1
 137 536 l 1
 267 536 l 1
 283 161 l 1
 452 536 l 1
 577 536 l 1
 584 159 l 1
 758 536 l 1
 855 536 l 1
 608 0 l 1
 470 0 l 1
 463 368 l 1
 298 0 l 1
 159 0 l 1
EndSplineSet
EndChar
StartChar: x
Encoding: 120 120 189
Width: 556
Flags: MW
HStem: 0 20 516 20<138 302 302 302 509 627 627 627>
LayerCount: 2
Fore
SplineSet
23 0 m 1
 252 269 l 1
 138 536 l 1
 302 536 l 1
 375 366 l 1
 509 536 l 1
 627 536 l 1
 415 272 l 1
 532 0 l 1
 367 0 l 1
 292 177 l 1
 143 0 l 1
 23 0 l 1
EndSplineSet
EndChar
StartChar: y
Encoding: 121 121 190
Width: 556
Flags: MW
HStem: 0 20 516 20<119 272 272 272 544 651 651 651>
LayerCount: 2
Fore
SplineSet
205 0 m 1
 119 536 l 1
 272 536 l 1
 327 189 l 1
 544 536 l 1
 651 536 l 1
 192 -193 l 1
 45 -193 l 1xc0
 205 0 l 1
EndSplineSet
EndChar
StartChar: z
Encoding: 122 122 191
Width: 500
Flags: MW
HStem: 0 96<54 73 73 73 235 451> 446 90<175 373 157 553 535 535>
LayerCount: 2
Fore
SplineSet
54 0 m 1
 73 96 l 1
 373 446 l 1
 157 446 l 1
 175 536 l 1
 553 536 l 1
 535 446 l 1
 235 96 l 1
 471 96 l 1
 451 0 l 1xc0
 54 0 l 1
EndSplineSet
EndChar
StartChar: braceleft
Encoding: 123 123 269
Width: 389
Flags: W
VStem: 112 123<-28 -11> 188 101<207 218 179.5 233>
LayerCount: 2
Fore
SplineSet
121 361 m 1x40
 151 361 l 2
 208 361 236 400 236 479 c 2
 236 495 l 1
 233 540 l 1
 233 551 l 1
 233 555 l 2
 233 626 253 680 294 716 c 0
 336 754 386 768 483 771 c 1
 466 687 l 1
 382 686 358 662 357 580 c 2
 355 538 l 1
 354 432 312 363 220 313 c 1
 268 280 289 243 289 193 c 0x40
 289 166 281 128 266 88 c 2
 250 46 l 2
 241 22 235 -1 235 -12 c 0
 235 -44 260 -59 317 -60 c 1
 300 -145 l 1
 169 -142 112 -106 112 -26 c 0x80
 112 4 121 38 143 87 c 2
 163 132 l 2
 181 172 188 197 188 217 c 0
 188 249 169 265 132 265 c 2
 101 265 l 1
 121 361 l 1x40
EndSplineSet
EndChar
StartChar: bar
Encoding: 124 124 304
Width: 280
Flags: W
LayerCount: 2
Fore
SplineSet
69 -145 m 1
 252 771 l 1
 337 771 l 1
 153 -145 l 1
 69 -145 l 1
EndSplineSet
EndChar
StartChar: braceright
Encoding: 125 125 270
Width: 389
Flags: W
VStem: 225 101<408 419.5 393 447> 279 122<637.5 655>
LayerCount: 2
Fore
SplineSet
393 265 m 1x80
 363 265 l 2
 306 265 278 227 278 148 c 2
 278 132 l 1
 281 87 l 1
 281 86 l 1
 280 82 l 1
 280 82 280 81 281 77 c 2
 280 70 l 1
 281 39 l 2
 281 29 271 -7 261 -30 c 0
 241 -78 207 -108 150 -128 c 0
 119 -139 91 -143 31 -145 c 1
 48 -60 l 1
 131 -59 156 -35 157 46 c 2
 158 88 l 2
 160 194 202 264 294 313 c 1
 246 347 225 383 225 433 c 0x80
 225 461 234 500 248 539 c 2
 264 580 l 2
 273 604 279 627 279 639 c 0
 279 671 254 686 197 687 c 1
 214 771 l 1
 275 770 306 765 337 750 c 0
 379 731 401 698 401 653 c 0x40
 401 622 390 582 371 540 c 2
 350 495 l 2
 335 461 326 430 326 409 c 0
 326 377 345 361 382 361 c 2
 412 361 l 1
 393 265 l 1x80
EndSplineSet
EndChar
StartChar: asciitilde
Encoding: 126 126 307
Width: 584
Flags: MW
HStem: 192 94<420.5 500.5> 291 95<198.5 278>
LayerCount: 2
Fore
SplineSet
137 217 m 1
 82 217 l 1
 101 291 123 328 161 356 c 0
 188 376 222 386 258 386 c 0
 298 386 330 374 361 348 c 2
 395 319 l 2
 422 296 448 286 477 286 c 0
 524 286 550 309 562 361 c 1
 617 361 l 1
 597 288 576 250 538 222 c 0
 511 202 478 192 440 192 c 0
 401 192 369 204 338 230 c 2
 304 259 l 2
 278 280 251 291 222 291 c 0
 175 291 149 268 137 217 c 1
EndSplineSet
EndChar
StartChar: exclamdown
Encoding: 161 161 233
Width: 333
Flags: MW
HStem: 0 20 603 120<239 359 215 383>
LayerCount: 2
Fore
SplineSet
383 723 m 1
 359 603 l 1
 215 603 l 1
 239 723 l 1
 383 723 l 1
318 518 m 1
 267 145 l 1
 239 0 l 1
 94 0 l 1
 123 145 l 1
 222 518 l 1
 318 518 l 1
EndSplineSet
EndChar
StartChar: cent
Encoding: 162 162 215
Width: 556
Flags: MW
HStem: 0 20 703 20<460 533 533 533>
VStem: 140 142<282.5 350>
LayerCount: 2
Fore
SplineSet
316 0 m 1
 333 86 l 1
 255 93 217 110 183 149 c 0
 154 184 140 231 140 295 c 0
 140 405 178 499 250 565 c 0
 303 614 361 639 446 648 c 1
 460 723 l 1
 533 723 l 1
 517 647 l 1
 556 645 593 638 627 628 c 1
 606 522 l 1
 568 541 533 552 499 554 c 1
 425 183 l 1
 464 185 502 194 543 210 c 1
 524 111 l 1
 484 99 444 91 406 88 c 1
 388 0 l 1
 316 0 l 1
354 191 m 1
 427 553 l 1
 339 524 282 430 282 315 c 0
 282 250 303 214 354 191 c 1
EndSplineSet
EndChar
StartChar: sterling
Encoding: 163 163 213
Width: 556
Flags: MW
HStem: 0 114<50 73 73 73 208 496> 341 90<153 215 134 233 377 454> 651 90<483.5 532>
LayerCount: 2
Fore
SplineSet
50 0 m 1
 73 114 l 1
 140 129 181 175 197 252 c 2
 215 341 l 1
 134 341 l 1
 153 431 l 1
 233 431 l 1
 249 514 l 2
 280 666 368 741 516 741 c 0
 553 741 594 737 642 730 c 1
 622 631 l 1
 583 644 549 651 515 651 c 0
 452 651 414 616 400 546 c 2
 377 431 l 1
 472 431 l 1
 454 341 l 1
 359 341 l 1
 333 213 308 175 208 114 c 1
 519 114 l 1
 496 0 l 1
 50 0 l 1
EndSplineSet
EndChar
StartChar: currency
Encoding: 164 164 266
Width: 556
Flags: MW
HStem: 144 108<302 327.5> 470 108<372.5 398.5>
VStem: 129 110<314.5 347.5> 461 110<375 407.5>
LayerCount: 2
Fore
SplineSet
507 541 m 1
 623 638 l 1
 671 579 l 1
 554 482 l 1
 566 454 571 430 571 403 c 0
 571 347 551 297 506 241 c 1
 584 144 l 1
 512 84 l 1
 434 181 l 1
 387 155 348 144 307 144 c 0
 265 144 231 155 194 181 c 1
 78 84 l 1
 30 144 l 1
 146 241 l 1
 134 270 129 293 129 319 c 0
 129 376 149 425 194 482 c 1
 117 579 l 1
 188 638 l 1
 266 541 l 1
 314 567 352 578 393 578 c 0
 435 578 469 567 507 541 c 1
373 470 m 0
 303 470 239 408 239 340 c 0
 239 289 276 252 328 252 c 0
 397 252 461 314 461 382 c 0
 461 433 424 470 373 470 c 0
EndSplineSet
EndChar
StartChar: yen
Encoding: 165 165 218
Width: 556
Flags: MW
HStem: 0 20 147 72<130 236 115 250 395 501> 292 72<158 264 144 279 424 530> 703 20<145 312 312 312 592 701 701 701>
LayerCount: 2
Fore
SplineSet
206 0 m 1
 236 147 l 1
 115 147 l 1
 130 219 l 1
 250 219 l 1
 264 292 l 1
 144 292 l 1
 158 364 l 1
 279 364 l 1
 145 723 l 1
 312 723 l 1
 403 479 l 1
 592 723 l 1
 701 723 l 1
 424 364 l 1
 544 364 l 1
 530 292 l 1
 409 292 l 1
 395 219 l 1
 515 219 l 1
 501 147 l 1
 380 147 l 1
 351 0 l 1
 206 0 l 1
EndSplineSet
EndChar
StartChar: brokenbar
Encoding: 166 166 305
Width: 386
Flags: W
LayerCount: 2
Fore
SplineSet
122 -145 m 1
 194 217 l 1
 279 217 l 1
 206 -145 l 1
 122 -145 l 1
233 410 m 1
 305 771 l 1
 390 771 l 1
 317 410 l 1
 233 410 l 1
EndSplineSet
EndChar
StartChar: section
Encoding: 167 167 250
Width: 556
Flags: W
HStem: -163 91<218 279.5 218 298> 651 91<391.5 452.5>
VStem: 126 112<228 328.5> 178 126<562 594> 367 125<-15.5 19.5> 434 109<258 365>
LayerCount: 2
Fore
SplineSet
46 -135 m 1xc8
 67 -28 l 1
 140 -59 193 -72 243 -72 c 0
 316 -72 367 -39 367 8 c 0
 367 31 346 53 301 77 c 2
 240 109 l 2
 164 149 126 199 126 257 c 0xe8
 126 317 157 374 225 438 c 1
 192 466 178 496 178 536 c 0
 178 652 291 742 438 742 c 0
 488 742 540 735 601 722 c 1
 581 621 l 1
 524 642 476 651 429 651 c 0
 354 651 304 620 304 573 c 0
 304 551 322 532 361 512 c 2
 415 485 l 2
 511 436 543 398 543 332 c 0xd4
 543 271 513 214 445 146 c 1
 478 116 492 86 492 42 c 0
 492 -82 382 -163 214 -163 c 0
 163 -163 115 -155 46 -135 c 1xc8
310 229 m 2
 392 183 l 1
 421 218 434 245 434 271 c 0xc4
 434 299 411 326 363 352 c 2
 277 400 l 1
 251 369 238 342 238 315 c 0
 238 284 262 256 310 229 c 2
EndSplineSet
EndChar
StartChar: dieresis
Encoding: 168 168 281
Width: 333
Flags: MW
HStem: 627 108<135 265 156 243 362 448 156 340>
LayerCount: 2
Fore
SplineSet
135 627 m 1
 156 735 l 1
 265 735 l 1
 243 627 l 1x80
 135 627 l 1
340 627 m 1
 362 735 l 1
 470 735 l 1
 448 627 l 1
 340 627 l 1
EndSplineSet
EndChar
StartChar: copyright
Encoding: 169 169 295
Width: 737
Flags: MW
HStem: 0 60<309 425.5> 155 58<411.5 440> 515 52<453.5 518> 663 61<460.5 577.5>
VStem: 75 63<234 347.5> 244 87<288 378 288 389.5> 750 63<376.5 489.5>
LayerCount: 2
Fore
SplineSet
517 724 m 0
 690 724 813 602 813 432 c 0
 813 321 767 220 677 132 c 0
 587 44 483 0 368 0 c 0
 198 0 75 122 75 292 c 0
 75 403 121 505 210 592 c 0
 300 680 404 724 517 724 c 0
504 663 m 0
 410 663 326 627 251 554 c 0
 175 481 138 400 138 308 c 0
 138 160 236 60 382 60 c 0
 484 60 574 101 645 179 c 0
 714 255 750 335 750 415 c 0
 750 564 651 663 504 663 c 0
567 237 m 1
 554 176 l 1
 501 161 460 155 420 155 c 0
 310 155 244 216 244 318 c 0
 244 461 353 567 501 567 c 0
 540 567 581 562 629 550 c 1
 617 488 l 1
 572 507 536 515 500 515 c 0
 407 515 331 430 331 326 c 0
 331 250 371 213 452 213 c 0
 495 213 530 221 567 237 c 1
EndSplineSet
EndChar
StartChar: ordfeminine
Encoding: 170 170 271
Width: 370
Flags: MW
HStem: 680 61<304.5 312.5>
VStem: 124 105<489.5 517 489.5 520.5>
LayerCount: 2
Fore
SplineSet
307 440 m 1
 300 440 l 1
 267 413 240 402 207 402 c 0
 152 402 124 428 124 479 c 0
 124 562 196 612 316 612 c 2
 340 612 l 1
 345 635 l 1
 346 648 l 2
 346 669 329 680 296 680 c 0
 259 680 226 671 186 651 c 1
 199 720 l 1
 244 735 283 741 326 741 c 0
 409 741 451 715 451 666 c 0
 451 658 450 652 448 640 c 2
 419 498 l 1
 418 486 l 2
 417 476 423 470 434 470 c 0
 437 470 439 470 444 471 c 2
 445 471 l 1
 433 410 l 1
 410 404 392 402 377 402 c 0
 338 402 317 413 307 440 c 1
317 498 m 1
 329 553 l 1
 306 553 l 2
 255 553 229 535 229 499 c 0
 229 480 239 470 259 470 c 0
 277 470 294 478 317 498 c 1
EndSplineSet
EndChar
StartChar: guillemotleft
Encoding: 171 171 237
Width: 556
Flags: W
LayerCount: 2
Fore
SplineSet
612 434 m 1
 451 268 l 1
 546 103 l 1
 468 51 l 1
 308 268 l 1
 554 485 l 1
 612 434 l 1
389 432 m 1
 228 268 l 1
 323 103 l 1
 245 51 l 1
 85 268 l 1
 332 485 l 1
 389 432 l 1
EndSplineSet
EndChar
StartChar: logicalnot
Encoding: 172 172 302
Width: 584
Flags: MW
HStem: 350 84<121 620 138 518>
LayerCount: 2
Fore
SplineSet
121 350 m 1
 138 434 l 1
 620 434 l 1
 562 145 l 1
 477 145 l 1
 518 350 l 1
 121 350 l 1
EndSplineSet
EndChar
StartChar: sfthyphen
Encoding: 173 173 242
Width: 333
Flags: MW
HStem: 265 90<89 368 107 350>
LayerCount: 2
Fore
SplineSet
89 265 m 1
 107 355 l 1
 368 355 l 1
 350 265 l 1
 89 265 l 1
EndSplineSet
EndChar
StartChar: registered
Encoding: 174 174 296
Width: 737
Flags: MW
HStem: 0 60<311 427.5> 663 61<462.5 579.5>
VStem: 77 63<234 347.5> 539 82<452 477.5> 752 63<376.5 489.5>
LayerCount: 2
Fore
SplineSet
519 724 m 0
 692 724 815 602 815 432 c 0
 815 321 769 220 679 132 c 0
 589 44 485 0 370 0 c 0
 200 0 77 122 77 292 c 0
 77 403 123 505 212 592 c 0
 302 680 406 724 519 724 c 0
506 663 m 0
 412 663 328 627 253 554 c 0
 177 481 140 400 140 308 c 0
 140 160 238 60 384 60 c 0
 486 60 576 101 647 179 c 0
 716 255 752 335 752 415 c 0
 752 564 653 663 506 663 c 0
271 167 m 1
 350 559 l 1
 520 559 l 2
 588 559 621 534 621 482 c 0
 621 422 590 381 522 350 c 1
 596 167 l 1
 504 167 l 1
 444 327 l 1
 380 327 l 1
 348 167 l 1
 271 167 l 1
391 381 m 1
 434 381 l 2
 495 381 539 416 539 463 c 0
 539 492 516 505 468 505 c 2
 416 505 l 1
 391 381 l 1
EndSplineSet
EndChar
StartChar: macron
Encoding: 349 175 293
Width: 333
Flags: MW
HStem: 627 84<111 489 128 472>
LayerCount: 2
Fore
SplineSet
111 627 m 1
 128 711 l 1
 489 711 l 1
 472 627 l 1x80
 111 627 l 1
EndSplineSet
EndChar
StartChar: degree
Encoding: 176 176 258
Width: 400
Flags: MW
HStem: 494 72<296 338.5 296 347> 712 72<322.5 365>
VStem: 183 74<605 647.5 605 656> 404 74<630.5 673>
LayerCount: 2
Fore
SplineSet
360 784 m 0
 429 784 478 735 478 667 c 0
 478 577 393 494 301 494 c 0
 232 494 183 543 183 611 c 0
 183 701 267 784 360 784 c 0
346 712 m 0
 299 712 257 671 257 624 c 0
 257 586 277 566 315 566 c 0
 362 566 404 607 404 654 c 0
 404 692 384 712 346 712 c 0
EndSplineSet
EndChar
StartChar: plusminus
Encoding: 177 177 273
Width: 584
Flags: MW
HStem: 0 84<51 550 68 533> 320 84<132 314 115 330 132 398 415 597>
LayerCount: 2
Fore
SplineSet
51 0 m 1
 68 84 l 1
 550 84 l 1
 533 0 l 1
 51 0 l 1
279 145 m 1
 314 320 l 1
 115 320 l 1
 132 404 l 1
 330 404 l 1
 365 578 l 1
 450 578 l 1
 415 404 l 1
 614 404 l 1
 597 320 l 1
 398 320 l 1
 363 145 l 1
 279 145 l 1
EndSplineSet
EndChar
StartChar: twosuperior
Encoding: 178 178 220
Width: 333
Flags: MW
HStem: 296 83<78 94 94 94 207 385> 675 66<288.5 293>
VStem: 335 117<614.5 644>
LayerCount: 2
Fore
SplineSet
78 296 m 1
 94 379 l 1
 119 401 135 415 153 430 c 2
 197 464 l 2
 306 547 335 582 335 629 c 0
 335 659 314 675 272 675 c 0
 238 675 201 666 151 645 c 1
 165 719 l 1
 221 734 266 741 311 741 c 0
 398 741 452 704 452 643 c 0
 452 586 425 551 327 481 c 2
 289 454 l 2
 244 421 218 398 207 379 c 1
 402 379 l 1
 385 296 l 1
 78 296 l 1
EndSplineSet
EndChar
StartChar: threesuperior
Encoding: 179 179 221
Width: 333
Flags: W
HStem: 286 62<186 229.5 186 262.5> 679 62<283.5 287>
VStem: 296 112<403 448> 325 114<623 650>
LayerCount: 2
Fore
SplineSet
78 300 m 1xe0
 93 373 l 1
 136 356 170 348 202 348 c 0
 257 348 296 380 296 426 c 0xe0
 296 470 259 493 186 493 c 2
 156 493 l 1
 169 555 l 1
 191 555 l 2
 278 555 325 582 325 635 c 0
 325 665 307 679 267 679 c 0
 232 679 197 671 155 654 c 1
 168 720 l 1
 221 735 263 741 304 741 c 0
 394 741 439 712 439 653 c 0xd0
 439 593 401 554 316 528 c 1
 380 511 408 481 408 430 c 0
 408 344 325 286 200 286 c 0
 161 286 121 291 78 300 c 1xe0
EndSplineSet
EndChar
StartChar: acute
Encoding: 180 180 284
Width: 333
Flags: W
LayerCount: 2
Fore
SplineSet
167 626 m 1
 315 783 l 1
 448 783 l 1
 260 626 l 1
 167 626 l 1
EndSplineSet
EndChar
StartChar: mu
Encoding: 181 181 308
Width: 611
Flags: W
HStem: -9 115<287.5 300.5> 0 20 516 20<180 325 325 325 505 650 650 650>
VStem: 415 150<29 77>
LayerCount: 2
Fore
SplineSet
34 -193 m 1x90
 180 536 l 1
 325 536 l 1
 258 205 l 2
 255 190 253 171 253 160 c 0
 253 125 271 106 304 106 c 0xb0
 343 106 382 133 438 199 c 1
 505 536 l 1
 650 536 l 1
 575 160 l 2
 569 132 565 92 565 62 c 0
 565 41 567 22 573 0 c 1
 416 0 l 1x70
 415 14 415 25 415 33 c 0
 415 47 416 77 418 101 c 1
 373 24 329 -9 272 -9 c 0
 251 -9 234 -4 219 6 c 1
 179 -193 l 1
 34 -193 l 1x90
EndSplineSet
EndChar
StartChar: paragraph
Encoding: 182 182 265
Width: 556
Flags: MW
HStem: 657 66<442 514 442 442>
LayerCount: 2
Fore
SplineSet
204 -145 m 1
 305 361 l 1
 194 380 147 426 147 517 c 0
 147 586 176 650 226 687 c 0
 261 713 306 723 386 723 c 2
 606 723 l 1
 432 -145 l 1
 354 -145 l 1
 514 657 l 1
 442 657 l 1
 282 -145 l 1
 204 -145 l 1
EndSplineSet
EndChar
StartChar: periodcentered
Encoding: 340 183 224
Width: 277
Flags: MW
HStem: 229 156<106 294 137 263>
LayerCount: 2
Fore
SplineSet
106 229 m 1
 137 385 l 1
 294 385 l 1
 263 229 l 1
 106 229 l 1
EndSplineSet
EndChar
StartChar: cedilla
Encoding: 184 184 291
Width: 333
Flags: MW
HStem: -211 52<95.5 106 77.5 146> 0 20
VStem: 150 97<-136 -113>
LayerCount: 2
Fore
SplineSet
130 0 m 1
 196 0 l 1
 148 -55 l 1
 217 -64 247 -84 247 -121 c 0
 247 -170 183 -211 109 -211 c 0
 82 -211 54 -206 20 -196 c 1
 29 -152 l 1
 52 -157 70 -159 85 -159 c 0
 127 -159 150 -147 150 -125 c 0
 150 -101 121 -89 63 -89 c 2
 53 -89 l 1xe0
 130 0 l 1
EndSplineSet
EndChar
StartChar: onesuperior
Encoding: 185 185 219
Width: 333
Flags: MW
HStem: 301 63<84 193 97 193 301 385> 721 20<377 377>
LayerCount: 2
Fore
SplineSet
84 301 m 1
 97 364 l 1
 193 364 l 1
 250 649 l 1
 149 625 l 1
 162 690 l 1
 377 741 l 1
 301 364 l 1
 398 364 l 1
 385 301 l 1
 84 301 l 1
EndSplineSet
EndChar
StartChar: ordmasculine
Encoding: 186 186 272
Width: 365
Flags: MW
HStem: 402 63<269 304 269 327.5> 679 62<304 339>
VStem: 133 109<510 570.5 510 591.5> 366 109<573.5 634>
LayerCount: 2
Fore
SplineSet
340 741 m 0
 430 741 475 698 475 613 c 0
 475 490 388 402 267 402 c 0
 178 402 133 445 133 530 c 0
 133 653 220 741 340 741 c 0
326 679 m 0
 282 679 242 609 242 532 c 0
 242 488 256 465 282 465 c 0
 326 465 366 535 366 612 c 0
 366 656 352 679 326 679 c 0
EndSplineSet
EndChar
StartChar: guillemotright
Encoding: 187 187 236
Width: 556
Flags: W
LayerCount: 2
Fore
SplineSet
51 103 m 1
 212 268 l 1
 117 434 l 1
 195 485 l 1
 355 268 l 1
 109 51 l 1
 51 103 l 1
274 104 m 1
 435 268 l 1
 340 434 l 1
 418 485 l 1
 578 268 l 1
 331 51 l 1
 274 104 l 1
EndSplineSet
EndChar
StartChar: onequarter
Encoding: 188 188 275
Width: 834
Flags: W
HStem: -18 20 0 20 110 81<461 461 542 650 445 461 761 790> 721 20<384 384 771 845 845 845>
LayerCount: 2
Fore
SplineSet
187 300 m 1x90
 257 649 l 1
 143 622 l 1
 156 687 l 1
 384 741 l 1
 295 300 l 1
 187 300 l 1x90
78 -18 m 1
 771 741 l 1
 845 741 l 1
 152 -18 l 1
 78 -18 l 1
628 0 m 1x60
 650 110 l 1
 445 110 l 1
 461 191 l 1
 711 434 l 1
 809 434 l 1
 761 191 l 1
 807 191 l 1
 790 110 l 1
 745 110 l 1
 723 0 l 1
 628 0 l 1x60
542 191 m 1
 667 191 l 1
 697 340 l 1
 542 191 l 1
EndSplineSet
EndChar
StartChar: onehalf
Encoding: 189 189 274
Width: 834
Flags: W
HStem: -18 20 0 83<494 511 511 511 623 801> 380 65<704.5 708> 721 20<384 384 753 827 827 827>
VStem: 750 118<319 348.5>
LayerCount: 2
Fore
SplineSet
187 300 m 1x98
 257 649 l 1
 143 622 l 1
 156 687 l 1
 384 741 l 1
 295 300 l 1
 187 300 l 1x98
60 -18 m 1
 753 741 l 1
 827 741 l 1
 134 -18 l 1
 60 -18 l 1
494 0 m 1x68
 511 83 l 1
 536 106 553 120 570 134 c 2
 613 167 l 2
 721 251 750 286 750 333 c 0
 750 364 729 380 687 380 c 0
 654 380 617 370 567 349 c 1
 581 422 l 1
 637 438 682 445 727 445 c 0
 814 445 868 407 868 347 c 0
 868 291 837 251 744 185 c 2
 706 158 l 2
 661 126 633 101 623 83 c 1
 818 83 l 1
 801 0 l 1
 494 0 l 1x68
EndSplineSet
EndChar
StartChar: threequarters
Encoding: 190 190 276
Width: 834
Flags: W
HStem: -18 20 0 20 110 81<479 479 560 668 462 479 778 808> 286 62<216 259.5 216 292.5> 679 62<313.5 317>
VStem: 326 112<403 448> 355 114<623 650>
LayerCount: 2
Fore
SplineSet
108 300 m 1x9c
 123 373 l 1
 166 356 200 348 232 348 c 0
 287 348 326 380 326 426 c 0x9c
 326 470 289 493 216 493 c 2
 186 493 l 1
 199 555 l 1
 221 555 l 2
 308 555 355 582 355 635 c 0
 355 665 337 679 297 679 c 0
 262 679 227 671 185 654 c 1
 198 720 l 1
 251 735 293 741 334 741 c 0
 424 741 469 712 469 653 c 0x9a
 469 593 431 554 346 528 c 1
 410 510 438 481 438 430 c 0
 438 344 355 286 230 286 c 0
 191 286 151 291 108 300 c 1x9c
123 -18 m 1
 816 741 l 1
 889 741 l 1
 196 -18 l 1
 123 -18 l 1
646 0 m 1x64
 668 110 l 1
 462 110 l 1
 479 191 l 1
 729 434 l 1
 827 434 l 1
 778 191 l 1
 824 191 l 1
 808 110 l 1
 762 110 l 1
 740 0 l 1
 646 0 l 1x64
560 191 m 1
 684 191 l 1
 714 340 l 1
 560 191 l 1
EndSplineSet
EndChar
StartChar: questiondown
Encoding: 191 191 235
Width: 611
Flags: MW
HStem: -204 96<285 328> 415 121<387 507 362 531>
VStem: 44 162<-60 -25.5>
LayerCount: 2
Fore
SplineSet
531 536 m 1
 507 415 l 1
 362 415 l 1
 387 536 l 1
 531 536 l 1
346 332 m 1
 490 332 l 1
 487 318 l 2
 471 237 440 195 354 139 c 2
 297 103 l 2
 238 64 206 16 206 -35 c 0
 206 -85 244 -108 326 -108 c 0
 402 -108 472 -95 553 -64 c 1
 531 -175 l 1
 442 -195 368 -204 288 -204 c 0
 124 -204 44 -158 44 -65 c 0
 44 14 80 58 198 122 c 2
 243 146 l 2
 303 179 320 205 337 291 c 2
 346 332 l 1
EndSplineSet
EndChar
StartChar: Agrave
Encoding: 192 192 2
Width: 722
Flags: MW
HStem: 0 20 193 96<285 509 285 527 228 509> 703 20<431 581 581 581>
LayerCount: 2
Fore
SplineSet
6 0 m 1
 431 723 l 1
 581 723 l 1
 716 0 l 1
 562 0 l 1
 527 193 l 1
 228 193 l 1
 116 0 l 1
 6 0 l 1
285 289 m 1
 509 289 l 1
 454 577 l 1
 285 289 l 1
611 783 m 1
 518 783 l 1
 393 940 l 1
 525 940 l 1
 611 783 l 1
EndSplineSet
EndChar
StartChar: Aacute
Encoding: 193 193 1
Width: 722
Flags: MW
HStem: 0 20 193 96<285 509 285 527 228 509> 703 20<431 581 581 581>
LayerCount: 2
Fore
SplineSet
6 0 m 1
 431 723 l 1
 581 723 l 1
 716 0 l 1
 562 0 l 1
 527 193 l 1
 228 193 l 1
 116 0 l 1
 6 0 l 1
285 289 m 1
 509 289 l 1
 454 577 l 1
 285 289 l 1
425 783 m 1
 573 940 l 1
 706 940 l 1
 518 783 l 1
 425 783 l 1
EndSplineSet
EndChar
StartChar: Acircumflex
Encoding: 194 194 3
Width: 722
Flags: MW
HStem: 0 20 193 96<285 509 285 527 228 509> 703 20<431 581 581 581>
LayerCount: 2
Fore
SplineSet
6 0 m 1
 431 723 l 1
 581 723 l 1
 716 0 l 1
 562 0 l 1
 527 193 l 1
 228 193 l 1
 116 0 l 1
 6 0 l 1
285 289 m 1
 509 289 l 1
 454 577 l 1
 285 289 l 1
334 783 m 1
 483 940 l 1
 616 940 l 1
 702 783 l 1
 615 783 l 1
 538 879 l 1
 537 879 l 1
 421 783 l 1
 334 783 l 1
EndSplineSet
EndChar
StartChar: Atilde
Encoding: 195 195 5
Width: 722
Flags: W
HStem: 0 20 193 96<285 509 285 527 228 509> 703 20<431 581 581 581> 783 90<598 614 598 624.5> 850 90<453.5 469.5>
LayerCount: 2
Fore
SplineSet
6 0 m 1xe8
 431 723 l 1
 581 723 l 1
 716 0 l 1
 562 0 l 1
 527 193 l 1
 228 193 l 1
 116 0 l 1
 6 0 l 1xe8
285 289 m 1
 509 289 l 1
 454 577 l 1
 285 289 l 1
419 783 m 1
 346 783 l 1
 372 892 411 940 476 940 c 0x08
 497 940 514 934 533 919 c 2
 550 906 l 2
 556 901 559 898 561 897 c 0
 577 882 593 873 603 873 c 0
 625 873 639 894 649 940 c 1
 721 940 l 1
 696 830 657 783 592 783 c 0x10
 571 783 550 790 534 804 c 2
 518 817 l 2
 512 822 508 825 507 826 c 0
 486 844 475 850 464 850 c 0
 443 850 429 829 419 783 c 1
EndSplineSet
EndChar
StartChar: Adieresis
Encoding: 196 196 0
Width: 722
Flags: MW
HStem: 0 20 193 96<285 509 285 527 228 509> 703 20<431 581 581 581> 784 108<361 491 383 470 588 674 383 566>
LayerCount: 2
Fore
SplineSet
6 0 m 1
 431 723 l 1
 581 723 l 1
 716 0 l 1
 562 0 l 1
 527 193 l 1
 228 193 l 1
 116 0 l 1
 6 0 l 1
285 289 m 1
 509 289 l 1
 454 577 l 1
 285 289 l 1
361 784 m 1
 383 892 l 1
 491 892 l 1
 470 784 l 1
 361 784 l 1
566 784 m 1
 588 892 l 1
 696 892 l 1
 674 784 l 1
 566 784 l 1
EndSplineSet
EndChar
StartChar: Aring
Encoding: 197 197 6
Width: 722
Flags: MW
HStem: 0 20 193 96<285 509 285 527 228 509> 703 20<431 581 477.5 542 581 581> 723 55<500 536 500 581 500 536 500 542 500 581> 899 54<522 558>
VStem: 412 55<810.5 845.5 810.5 852> 591 55<831.5 866.5>
LayerCount: 2
Fore
SplineSet
6 0 m 1xfe
 431 723 l 1
 581 723 l 1
 716 0 l 1
 562 0 l 1
 527 193 l 1
 228 193 l 1
 116 0 l 1
 6 0 l 1xfe
285 289 m 1
 509 289 l 1
 454 577 l 1
 285 289 l 1
552 953 m 0
 607 953 646 915 646 861 c 0
 646 788 579 723 505 723 c 0
 450 723 412 761 412 816 c 0
 412 888 478 953 552 953 c 0
542 899 m 0
 502 899 467 865 467 826 c 0
 467 795 484 778 516 778 c 0
 556 778 591 812 591 851 c 0
 591 882 574 899 542 899 c 0
EndSplineSet
EndChar
StartChar: AE
Encoding: 198 198 159
Width: 1000
Flags: MW
HStem: 0 103<636 970> 187 94<351 508 276 527> 322 100<700 957 680 977> 624 99<740 1072 740 740>
LayerCount: 2
Fore
SplineSet
6 0 m 1
 588 723 l 1
 1091 723 l 1
 1072 624 l 1
 740 624 l 1
 700 422 l 1
 977 422 l 1
 957 322 l 1
 680 322 l 1
 636 103 l 1
 990 103 l 1
 970 0 l 1
 471 0 l 1
 508 187 l 1
 276 187 l 1
 126 0 l 1
 6 0 l 1
351 281 m 1
 527 281 l 1
 585 571 l 1
 351 281 l 1
EndSplineSet
EndChar
StartChar: Ccedilla
Encoding: 199 199 8
Width: 722
Flags: W
HStem: -211 52<348.5 359 330.5 399> -18 104<413.5 481.5> 0 20 642 99<533 618>
VStem: 108 162<219.5 331.5 219.5 344.5> 403 97<-136 -113>
LayerCount: 2
Fore
SplineSet
721 140 m 1x5c
 699 29 l 1
 616 -3 532 -18 431 -18 c 0
 213 -18 108 75 108 266 c 0
 108 423 178 570 293 658 c 0
 369 715 462 741 594 741 c 0
 676 741 748 733 829 713 c 1
 805 595 l 1
 715 629 651 642 585 642 c 0
 481 642 405 606 349 532 c 0
 298 463 270 376 270 287 c 0
 270 152 341 86 486 86 c 0
 564 86 637 103 721 140 c 1x5c
383 0 m 1xac
 449 0 l 1
 401 -55 l 1
 470 -64 500 -84 500 -121 c 0
 500 -170 436 -211 362 -211 c 0
 335 -211 307 -206 273 -196 c 1
 282 -152 l 1
 305 -157 323 -159 338 -159 c 0
 380 -159 403 -147 403 -125 c 0
 403 -101 374 -89 316 -89 c 2
 306 -89 l 1
 383 0 l 1xac
EndSplineSet
EndChar
StartChar: Eacute
Encoding: 201 201 13
Width: 667
Flags: MW
HStem: 0 103<255 637> 325 97<319 625 300 645> 624 99<359 739 359 359>
LayerCount: 2
Fore
SplineSet
84 0 m 1
 229 723 l 1
 759 723 l 1
 739 624 l 1
 359 624 l 1
 319 422 l 1
 645 422 l 1
 625 325 l 1
 300 325 l 1
 255 103 l 1
 658 103 l 1
 637 0 l 1
 84 0 l 1
427 783 m 1
 576 940 l 1
 709 940 l 1
 521 783 l 1
 427 783 l 1
EndSplineSet
EndChar
StartChar: Edieresis
Encoding: 203 203 12
Width: 667
Flags: MW
HStem: 0 103<255 637> 325 97<319 625 300 645> 624 99<359 739 359 359> 784 108<349 479 371 458 576 663 371 554>
LayerCount: 2
Fore
SplineSet
84 0 m 1
 229 723 l 1
 759 723 l 1
 739 624 l 1
 359 624 l 1
 319 422 l 1
 645 422 l 1
 625 325 l 1
 300 325 l 1
 255 103 l 1
 658 103 l 1
 637 0 l 1
 84 0 l 1
349 784 m 1
 371 892 l 1
 479 892 l 1
 458 784 l 1
 349 784 l 1
554 784 m 1
 576 892 l 1
 684 892 l 1
 663 784 l 1
 554 784 l 1
EndSplineSet
EndChar
StartChar: Igrave
Encoding: 204 204 22
Width: 278
Flags: MW
HStem: 0 20 703 20<208 358 358 358>
LayerCount: 2
Fore
SplineSet
63 0 m 1
 208 723 l 1
 358 723 l 1
 213 0 l 1
 63 0 l 1
406 783 m 1
 313 783 l 1
 188 940 l 1
 320 940 l 1
 406 783 l 1
EndSplineSet
EndChar
StartChar: Iacute
Encoding: 205 205 21
Width: 278
Flags: MW
HStem: 0 20 703 20<208 358 358 358>
LayerCount: 2
Fore
SplineSet
63 0 m 1
 208 723 l 1
 358 723 l 1
 213 0 l 1
 63 0 l 1
184 783 m 1
 333 940 l 1
 465 940 l 1
 277 783 l 1
 184 783 l 1
EndSplineSet
EndChar
StartChar: Icircumflex
Encoding: 206 206 23
Width: 278
Flags: MW
HStem: 0 20 703 20<208 358 358 358>
LayerCount: 2
Fore
SplineSet
63 0 m 1
 208 723 l 1
 358 723 l 1
 213 0 l 1
 63 0 l 1
111 783 m 1
 259 940 l 1
 393 940 l 1
 480 783 l 1
 392 783 l 1
 315 879 l 1
 313 879 l 1
 198 783 l 1
 111 783 l 1
EndSplineSet
EndChar
StartChar: Idieresis
Encoding: 207 207 20
Width: 278
Flags: MW
HStem: 0 20 703 20<208 358 358 358> 784 108<138 269 160 247 365 452 160 343>
LayerCount: 2
Fore
SplineSet
63 0 m 1
 208 723 l 1
 358 723 l 1
 213 0 l 1
 63 0 l 1
138 784 m 1
 160 892 l 1
 269 892 l 1
 247 784 l 1
 138 784 l 1
343 784 m 1
 365 892 l 1
 473 892 l 1
 452 784 l 1
 343 784 l 1
EndSplineSet
EndChar
StartChar: Eth
Encoding: 208 208 162
Width: 722
Flags: MW
HStem: 0 20 321 90<82 148 64 166 317 401> 624 99<359 427 359 359>
VStem: 604 163<412 501.5>
LayerCount: 2
Fore
SplineSet
84 0 m 1
 148 321 l 1
 64 321 l 1
 82 411 l 1
 166 411 l 1
 229 723 l 1
 481 723 l 2
 673 723 767 639 767 467 c 0
 767 357 731 252 665 164 c 0
 582 54 469 0 322 0 c 2
 84 0 l 1
255 103 m 1
 308 103 l 2
 411 103 484 138 535 214 c 0
 579 280 604 361 604 440 c 0
 604 563 545 624 427 624 c 2
 359 624 l 1
 317 411 l 1
 419 411 l 1
 401 321 l 1
 299 321 l 1
 255 103 l 1
EndSplineSet
EndChar
StartChar: Ntilde
Encoding: 209 209 29
Width: 722
Flags: W
HStem: 0 20 703 20<229 361 361 361 662 782 782 782> 783 90<606 622 606 632> 850 90<460.5 476>
LayerCount: 2
Fore
SplineSet
84 0 m 1xd0
 229 723 l 1
 361 723 l 1
 563 229 l 1
 662 723 l 1
 782 723 l 1
 637 0 l 1
 503 0 l 1
 303 494 l 1
 205 0 l 1
 84 0 l 1xd0
426 783 m 1
 354 783 l 1
 379 892 419 940 483 940 c 0x10
 505 940 524 933 542 919 c 2
 558 906 l 2
 565 901 570 896 570 896 c 2
 590 879 601 873 611 873 c 0
 633 873 647 894 657 940 c 1
 729 940 l 1
 704 831 664 783 600 783 c 0x20
 578 783 558 790 542 804 c 2
 525 817 l 2
 518 823 514 826 513 828 c 0
 501 839 481 850 471 850 c 0
 450 850 436 829 426 783 c 1
EndSplineSet
EndChar
StartChar: Otilde
Encoding: 213 213 34
Width: 778
Flags: W
HStem: -18 99<359.5 436.5 359.5 454.5> 642 99<474.5 569.5> 783 90<631.5 647 631.5 657.5> 850 90<486.5 502.5>
VStem: 107 159<204 323.5> 667 160<400 518.5>
LayerCount: 2
Fore
SplineSet
543 741 m 0xdc
 732 741 827 646 827 459 c 0
 827 341 789 230 717 137 c 0
 635 33 526 -18 383 -18 c 0
 200 -18 107 77 107 264 c 0
 107 383 145 494 217 586 c 0
 299 690 406 741 543 741 c 0xdc
521 642 m 0
 379 642 266 475 266 266 c 0
 266 142 312 81 407 81 c 0
 466 81 518 105 560 151 c 0
 628 225 667 336 667 457 c 0
 667 580 618 642 521 642 c 0
452 783 m 1
 379 783 l 1
 405 892 444 940 509 940 c 0x1c
 530 940 548 933 566 919 c 2
 583 906 l 2
 591 899 593 898 595 896 c 0
 612 881 627 873 636 873 c 0
 658 873 672 894 682 940 c 1
 754 940 l 1
 729 830 690 783 625 783 c 0x2c
 604 783 583 790 567 804 c 2
 551 817 l 2
 545 822 541 825 540 826 c 0
 519 844 508 850 497 850 c 0
 476 850 462 829 452 783 c 1
EndSplineSet
EndChar
StartChar: multiply
Encoding: 215 215 261
Width: 584
Flags: MW
HStem: 516 20<220 220 578 578>
LayerCount: 2
Fore
SplineSet
77 119 m 1
 292 297 l 1
 149 476 l 1
 220 536 l 1
 364 357 l 1
 578 536 l 1
 626 476 l 1
 411 297 l 1
 554 119 l 1
 483 59 l 1
 340 238 l 1
 125 59 l 1
 77 119 l 1
EndSplineSet
EndChar
StartChar: Oslash
Encoding: 216 216 161
Width: 778
Flags: MW
HStem: -18 20 721 20<468.5 580.5 795 887 887 887>
LayerCount: 2
Fore
SplineSet
265 211 m 1
 635 581 l 1
 609 624 574 642 520 642 c 0
 435 642 364 592 317 496 c 0
 283 429 261 338 261 267 c 0
 261 255 261 249 265 211 c 1
659 512 m 1
 288 142 l 1
 315 99 352 81 407 81 c 0
 490 81 560 132 607 227 c 0
 641 295 663 385 663 457 c 0
 663 469 662 483 659 512 c 1
36 -18 m 1
 145 91 l 1
 115 145 102 197 102 266 c 0
 102 383 140 494 212 586 c 0
 294 690 400 741 537 741 c 0
 624 741 685 723 736 683 c 1
 795 741 l 1
 887 741 l 1
 778 632 l 1
 809 578 821 528 821 458 c 0
 821 341 783 230 711 138 c 0
 629 33 523 -18 386 -18 c 0
 299 -18 239 0 187 41 c 1
 128 -18 l 1
 36 -18 l 1
EndSplineSet
EndChar
StartChar: Ugrave
Encoding: 217 217 44
Width: 722
Flags: MW
HStem: -18 100<351.5 418.5> 703 20<224 374 374 374 658 789 789 789>
VStem: 122 153<153 186>
LayerCount: 2
Fore
SplineSet
224 723 m 1
 374 723 l 1
 286 280 l 2
 279 247 275 212 275 188 c 0
 275 118 314 82 389 82 c 0
 483 82 542 144 567 269 c 2
 658 723 l 1
 789 723 l 1
 700 279 l 2
 680 177 656 121 614 77 c 0
 554 14 470 -18 367 -18 c 0
 214 -18 122 54 122 172 c 0
 122 200 126 236 135 280 c 2
 224 723 l 1
622 783 m 1
 528 783 l 1
 403 940 l 1
 536 940 l 1
 622 783 l 1
EndSplineSet
EndChar
StartChar: Ucircumflex
Encoding: 219 219 45
Width: 722
Flags: MW
HStem: -18 100<351.5 418.5> 703 20<224 374 374 374 658 789 789 789>
VStem: 122 153<153 186>
LayerCount: 2
Fore
SplineSet
224 723 m 1
 374 723 l 1
 286 280 l 2
 279 247 275 212 275 188 c 0
 275 118 314 82 389 82 c 0
 483 82 542 144 567 269 c 2
 658 723 l 1
 789 723 l 1
 700 279 l 2
 680 177 656 121 614 77 c 0
 554 14 470 -18 367 -18 c 0
 214 -18 122 54 122 172 c 0
 122 200 126 236 135 280 c 2
 224 723 l 1
344 783 m 1
 493 940 l 1
 626 940 l 1
 713 783 l 1
 625 783 l 1
 548 879 l 1
 547 879 l 1
 431 783 l 1
 344 783 l 1
EndSplineSet
EndChar
StartChar: Udieresis
Encoding: 220 220 42
Width: 722
Flags: MW
HStem: -18 100<351.5 418.5> 703 20<224 374 374 374 658 789 789 789> 784 108<372 502 393 480 598 685 393 577>
VStem: 122 153<153 186>
LayerCount: 2
Fore
SplineSet
224 723 m 1
 374 723 l 1
 286 280 l 2
 279 247 275 212 275 188 c 0
 275 118 314 82 389 82 c 0
 483 82 542 144 567 269 c 2
 658 723 l 1
 789 723 l 1
 700 279 l 2
 680 177 656 121 614 77 c 0
 554 14 470 -18 367 -18 c 0
 214 -18 122 54 122 172 c 0
 122 200 126 236 135 280 c 2
 224 723 l 1
372 784 m 1
 393 892 l 1
 502 892 l 1
 480 784 l 1
 372 784 l 1
577 784 m 1
 598 892 l 1
 706 892 l 1
 685 784 l 1
 577 784 l 1
EndSplineSet
EndChar
StartChar: Yacute
Encoding: 221 221 48
Width: 667
Flags: MW
HStem: 0 20 703 20<158 325 325 325 679 798 798 798>
LayerCount: 2
Fore
SplineSet
253 0 m 1
 314 303 l 1
 158 723 l 1
 325 723 l 1
 436 418 l 1
 679 723 l 1
 798 723 l 1
 465 304 l 1
 404 0 l 1
 253 0 l 1
421 783 m 1
 569 940 l 1
 702 940 l 1
 514 783 l 1
 421 783 l 1
EndSplineSet
EndChar
StartChar: Thorn
Encoding: 222 222 165
Width: 667
Flags: MW
HStem: 0 20 145 100<280 348 348 361 260 348> 484 100<349 425 329 491> 703 20<229 376 376 376>
VStem: 567 160<353 433.5>
LayerCount: 2
Fore
SplineSet
84 0 m 1
 229 723 l 1
 376 723 l 1
 349 584 l 1
 491 584 l 2
 672 584 727 551 727 441 c 0
 727 260 585 145 361 145 c 2
 260 145 l 1
 231 0 l 1
 84 0 l 1
280 245 m 1
 348 245 l 2
 485 245 567 304 567 402 c 0
 567 465 534 484 425 484 c 2
 329 484 l 1
 280 245 l 1
EndSplineSet
EndChar
StartChar: germandbls
Encoding: 223 223 195
Width: 611
Flags: W
HStem: -12 90<375.5 413 375.5 446.5> 0 20 694 89<407 453.5>
VStem: 468 140<127 159> 496 133<656.5 658>
LayerCount: 2
Fore
SplineSet
72 0 m 1x68
 182 552 l 2
 213 708 302 783 453 783 c 0
 568 783 629 745 629 675 c 0xa8
 629 638 612 602 577 564 c 2
 538 522 l 2
 506 487 489 460 489 443 c 0
 489 433 501 409 523 374 c 2
 555 325 l 2
 591 269 608 222 608 181 c 0
 608 71 511 -12 382 -12 c 0
 351 -12 320 -7 278 3 c 1
 297 98 l 1
 338 84 364 78 387 78 c 0
 439 78 468 104 468 150 c 0xb0
 468 168 460 189 441 218 c 2
 405 275 l 1
 375 319 l 2
 367 331 361 358 361 382 c 0
 361 412 374 446 396 475 c 2
 426 514 l 1
 459 557 l 2
 484 589 496 616 496 641 c 0
 496 675 474 694 433 694 c 0
 381 694 349 660 335 590 c 2
 217 0 l 1
 72 0 l 1x68
EndSplineSet
EndChar
StartChar: agrave
Encoding: 224 224 68
Width: 556
Flags: MW
HStem: -12 20 459 89<347.5 361>
VStem: 61 144<123 172 123 175.5> 409 141<423 425.5>
LayerCount: 2
Fore
SplineSet
544 83 m 1
 532 1 l 1
 495 -8 471 -12 447 -12 c 0
 388 -12 357 9 347 58 c 1
 341 58 l 1
 292 9 248 -12 191 -12 c 0
 111 -12 61 34 61 109 c 0
 61 242 176 327 356 327 c 2
 395 327 l 1
 405 376 l 2
 408 391 409 400 409 409 c 0
 409 442 385 459 337 459 c 0
 287 459 234 444 165 411 c 1
 186 511 l 1
 254 537 314 548 381 548 c 0
 493 548 550 509 550 430 c 0
 550 416 548 400 544 381 c 2
 497 143 l 2
 494 129 493 120 493 113 c 0
 493 92 504 81 524 81 c 0xf0
 530 81 539 82 544 83 c 1
357 135 m 1
 378 244 l 1
 344 244 l 2
 260 244 205 203 205 141 c 0
 205 105 225 86 262 86 c 0
 297 86 325 101 357 135 c 1
496 626 m 1
 402 626 l 1
 277 783 l 1
 409 783 l 1
 496 626 l 1
EndSplineSet
EndChar
StartChar: acircumflex
Encoding: 226 226 69
Width: 556
Flags: MW
HStem: -12 20 459 89<347.5 361>
VStem: 61 144<123 172 123 175.5> 409 141<423 425.5>
LayerCount: 2
Fore
SplineSet
544 83 m 1
 532 1 l 1
 495 -8 471 -12 447 -12 c 0
 388 -12 357 9 347 58 c 1
 341 58 l 1
 292 9 248 -12 191 -12 c 0
 111 -12 61 34 61 109 c 0
 61 242 176 327 356 327 c 2
 395 327 l 1
 405 376 l 2
 408 391 409 400 409 409 c 0
 409 442 385 459 337 459 c 0
 287 459 234 444 165 411 c 1
 186 511 l 1
 254 537 314 548 381 548 c 0
 493 548 550 509 550 430 c 0
 550 416 548 400 544 381 c 2
 497 143 l 2
 494 129 493 120 493 113 c 0
 493 92 504 81 524 81 c 0xf0
 530 81 539 82 544 83 c 1
357 135 m 1
 378 244 l 1
 344 244 l 2
 260 244 205 203 205 141 c 0
 205 105 225 86 262 86 c 0
 297 86 325 101 357 135 c 1
219 626 m 1
 367 783 l 1
 501 783 l 1
 587 626 l 1
 500 626 l 1
 423 722 l 1
 422 722 l 1
 306 626 l 1
 219 626 l 1
EndSplineSet
EndChar
StartChar: atilde
Encoding: 227 227 71
Width: 556
Flags: W
HStem: -12 20 459 89<347.5 361> 626 91<483 498.5 483 508.5> 693 90<337.5 353>
VStem: 61 144<123 172 123 175.5> 409 141<423 425.5>
LayerCount: 2
Fore
SplineSet
544 83 m 1
 532 1 l 1
 495 -8 471 -12 447 -12 c 0
 388 -12 357 9 347 58 c 1
 341 58 l 1
 292 9 248 -12 191 -12 c 0
 111 -12 61 34 61 109 c 0
 61 242 176 327 356 327 c 2
 395 327 l 1
 405 376 l 2
 408 391 409 400 409 409 c 0
 409 442 385 459 337 459 c 0
 287 459 234 444 165 411 c 1
 186 511 l 1
 254 537 314 548 381 548 c 0
 493 548 550 509 550 430 c 0
 550 416 548 400 544 381 c 2
 497 143 l 2
 494 129 493 120 493 113 c 0
 493 92 504 81 524 81 c 0xcc
 530 81 539 82 544 83 c 1
357 135 m 1
 378 244 l 1
 344 244 l 2
 260 244 205 203 205 141 c 0
 205 105 225 86 262 86 c 0
 297 86 325 101 357 135 c 1
303 626 m 1
 231 626 l 1
 256 736 295 783 360 783 c 0x10
 381 783 400 776 418 762 c 2
 434 750 l 2
 436 749 437 747 440 745 c 0
 443 742 444 741 447 739 c 0
 466 724 478 717 488 717 c 0
 509 717 523 738 533 783 c 1
 606 783 l 1
 580 674 541 626 476 626 c 0x20
 455 626 438 632 419 647 c 2
 402 660 l 1
 397 664 l 1
 394 667 l 2
 391 669 391 669 389 671 c 0
 377 683 358 693 348 693 c 0x10
 327 693 313 672 303 626 c 1
EndSplineSet
EndChar
StartChar: aring
Encoding: 229 229 72
Width: 556
Flags: MW
HStem: -12 20 459 89<347.5 361> 626 54<392.5 427.5 392.5 434.5> 802 54<414 449.5>
VStem: 61 56 61 144<123 172 123 175.5> 239 56 409 141<423 425.5>
LayerCount: 2
Fore
SplineSet
544 83 m 1
 532 1 l 1
 495 -8 471 -12 447 -12 c 0
 388 -12 357 9 347 58 c 1
 341 58 l 1
 292 9 248 -12 191 -12 c 0
 111 -12 61 34 61 109 c 0
 61 242 176 327 356 327 c 2
 395 327 l 1
 405 376 l 2
 408 391 409 400 409 409 c 0
 409 442 385 459 337 459 c 0
 287 459 234 444 165 411 c 1
 186 511 l 1
 254 537 314 548 381 548 c 0
 493 548 550 509 550 430 c 0
 550 416 548 400 544 381 c 2
 497 143 l 2
 494 129 493 120 493 113 c 0
 493 92 504 81 524 81 c 0xc5
 530 81 539 82 544 83 c 1
357 135 m 1
 378 244 l 1
 344 244 l 2
 260 244 205 203 205 141 c 0
 205 105 225 86 262 86 c 0
 297 86 325 101 357 135 c 1
444 856 m 0
 499 856 538 818 538 764 c 0
 538 691 472 626 397 626 c 0
 343 626 304 664 304 718 c 0x3a
 304 791 370 856 444 856 c 0
434 802 m 0
 394 802 360 768 360 728 c 0
 360 697 377 680 408 680 c 0
 447 680 482 714 482 754 c 0
 482 785 465 802 434 802 c 0
EndSplineSet
EndChar
StartChar: ae
Encoding: 230 230 192
Width: 889
Flags: MW
HStem: -12 98<155.5 285 640 662.5> 239 82<561 760 561 886 546 760> 459 89<356.5 379 692 719.5>
VStem: 61 144<123.5 172.5 123.5 176> 767 135<372 405.5>
LayerCount: 2
Fore
SplineSet
862 120 m 1
 842 18 l 1
 766 -2 696 -12 629 -12 c 0
 525 -12 462 19 414 94 c 1
 342 19 278 -12 199 -12 c 0
 112 -12 61 33 61 110 c 0
 61 242 185 325 382 325 c 2
 423 325 l 1
 433 376 l 2
 435 384 436 397 436 404 c 0
 436 440 407 459 351 459 c 0
 293 459 237 445 166 412 c 1
 186 511 l 1
 262 536 327 548 386 548 c 0
 448 548 493 531 544 489 c 1
 608 531 661 548 723 548 c 0
 841 548 902 486 902 368 c 0
 902 336 898 300 886 239 c 1
 546 239 l 1
 545 230 544 213 544 206 c 0
 544 127 593 86 687 86 c 0
 737 86 790 96 862 120 c 1
385 135 m 1
 407 244 l 1
 370 244 l 2
 271 244 205 203 205 142 c 0
 205 105 227 86 267 86 c 0
 303 86 339 101 385 135 c 1
561 321 m 1
 760 321 l 1
 765 345 767 365 767 379 c 0
 767 432 743 459 696 459 c 0
 633 459 592 417 561 321 c 1
EndSplineSet
EndChar
StartChar: ccedilla
Encoding: 231 231 76
Width: 556
Flags: MW
HStem: -211 52<248.5 259 230.5 299> -12 96<338 360> 0 20 451 97<388 466>
VStem: 87 155<174.5 286.5 174.5 306> 217 97
LayerCount: 2
Fore
SplineSet
542 112 m 1
 522 12 l 1
 444 -5 387 -12 333 -12 c 0
 168 -12 87 59 87 203 c 0
 87 409 236 548 458 548 c 0
 513 548 563 542 621 527 c 1
 600 423 l 1
 529 443 485 451 447 451 c 0
 329 451 242 353 242 220 c 0
 242 129 290 84 386 84 c 0x58
 427 84 477 93 542 112 c 1
283 0 m 1
 349 0 l 1
 301 -55 l 1
 370 -64 400 -84 400 -121 c 0
 400 -170 336 -211 262 -211 c 0
 235 -211 207 -206 173 -196 c 1
 182 -152 l 1
 205 -157 223 -159 238 -159 c 0
 280 -159 303 -147 303 -125 c 0
 303 -101 274 -89 216 -89 c 2
 206 -89 l 1xa4
 283 0 l 1
EndSplineSet
EndChar
StartChar: igrave
Encoding: 236 236 88
Width: 278
Flags: MW
HStem: 0 20 516 20<174 319 319 319>
LayerCount: 2
Fore
SplineSet
67 0 m 1
 174 536 l 1
 319 536 l 1
 212 0 l 1xc0
 67 0 l 1
376 626 m 1
 282 626 l 1
 157 783 l 1
 289 783 l 1
 376 626 l 1
EndSplineSet
EndChar
StartChar: iacute
Encoding: 237 237 87
Width: 278
Flags: MW
HStem: 0 20 516 20<174 319 319 319>
LayerCount: 2
Fore
SplineSet
67 0 m 1
 174 536 l 1
 319 536 l 1
 212 0 l 1xc0
 67 0 l 1
153 626 m 1
 301 783 l 1
 434 783 l 1
 246 626 l 1
 153 626 l 1
EndSplineSet
EndChar
StartChar: icircumflex
Encoding: 238 238 89
Width: 278
Flags: MW
HStem: 0 20 516 20<174 319 319 319>
LayerCount: 2
Fore
SplineSet
67 0 m 1
 174 536 l 1
 319 536 l 1
 212 0 l 1xc0
 67 0 l 1
80 626 m 1
 228 783 l 1
 362 783 l 1
 448 626 l 1
 361 626 l 1
 284 722 l 1
 283 722 l 1
 167 626 l 1
 80 626 l 1
EndSplineSet
EndChar
StartChar: idieresis
Encoding: 239 239 86
Width: 278
Flags: MW
HStem: 0 20 516 20<174 319 319 319> 627 108<108 238 130 216 335 421 130 313>
LayerCount: 2
Fore
SplineSet
67 0 m 1
 174 536 l 1
 319 536 l 1
 212 0 l 1
 67 0 l 1
108 627 m 1
 130 735 l 1
 238 735 l 1
 216 627 l 1
 108 627 l 1
313 627 m 1
 335 735 l 1
 443 735 l 1
 421 627 l 1
 313 627 l 1
EndSplineSet
EndChar
StartChar: eth
Encoding: 240 240 201
Width: 611
Flags: MW
HStem: -12 90<295.5 351> 434 90<355 402.5 351.5 431.5>
VStem: 84 150<156 241> 493 151<323 361.5>
LayerCount: 2
Fore
SplineSet
240 520 m 1
 200 584 l 1
 307 661 l 1
 265 674 231 680 190 680 c 2
 175 681 l 1
 193 771 l 1
 273 771 343 759 408 734 c 1
 532 826 l 1
 573 761 l 1
 481 694 l 1
 536 657 563 631 590 587 c 0
 626 530 644 460 644 378 c 0
 644 268 611 176 545 101 c 0
 480 25 399 -12 303 -12 c 0
 165 -12 84 66 84 198 c 0
 84 284 115 361 177 426 c 0
 238 491 311 524 392 524 c 0
 413 524 434 521 459 515 c 1
 448 562 421 596 380 620 c 1
 240 520 l 1
401 434 m 0
 309 434 234 327 234 195 c 0
 234 117 265 78 326 78 c 0
 415 78 493 193 493 325 c 0
 493 398 462 434 401 434 c 0
EndSplineSet
EndChar
StartChar: ntilde
Encoding: 241 241 94
Width: 611
Flags: W
HStem: 0 20 516 20<179 324 324 324> 528 20<476 549> 626 91<515 530.5 515 540.5> 693 90<369.5 385>
LayerCount: 2
Fore
SplineSet
72 0 m 1
 179 536 l 1
 324 536 l 1xc0
 306 447 l 1
 381 518 441 548 511 548 c 0
 587 548 627 512 627 442 c 0
 627 424 624 399 620 379 c 2
 545 0 l 1
 400 0 l 1
 468 343 l 2
 472 362 475 383 475 394 c 0
 475 421 459 435 429 435 c 0
 389 435 346 409 286 350 c 1
 217 0 l 1xa0
 72 0 l 1
335 626 m 1
 263 626 l 1
 288 736 327 783 392 783 c 0x08
 413 783 432 776 450 762 c 2
 466 750 l 2
 468 749 469 747 472 745 c 0
 475 742 476 741 479 739 c 0
 498 724 510 717 520 717 c 0
 541 717 555 738 565 783 c 1
 638 783 l 1
 612 674 573 626 508 626 c 0x10
 487 626 470 632 451 647 c 2
 434 660 l 1
 429 664 l 1
 426 667 l 2
 423 669 423 669 421 671 c 0
 409 683 390 693 380 693 c 0x08
 359 693 345 672 335 626 c 1
EndSplineSet
EndChar
StartChar: ocircumflex
Encoding: 244 244 98
Width: 611
Flags: MW
HStem: -12 90<297 369 297 400.5> 458 90<359 431.5>
VStem: 88 153<157 268 157 300> 488 153<267.5 378>
LayerCount: 2
Fore
SplineSet
422 548 m 0
 562 548 641 471 641 334 c 0
 641 137 496 -12 305 -12 c 0
 168 -12 88 66 88 202 c 0xf0
 88 398 233 548 422 548 c 0
403 458 m 0
 315 458 241 339 241 197 c 0
 241 117 269 78 325 78 c 0
 413 78 488 197 488 338 c 0
 488 418 460 458 403 458 c 0
252 626 m 1
 400 783 l 1
 534 783 l 1
 620 626 l 1
 533 626 l 1
 456 722 l 1
 455 722 l 1
 339 626 l 1
 252 626 l 1
EndSplineSet
EndChar
StartChar: otilde
Encoding: 245 245 99
Width: 611
Flags: W
HStem: -12 90<297 369 297 400.5> 458 90<359 431.5> 626 91<517 532.5 517 542.5> 693 90<371.5 387>
VStem: 88 153<157 268 157 300> 488 153<267.5 378>
LayerCount: 2
Fore
SplineSet
422 548 m 0
 562 548 641 471 641 334 c 0
 641 137 496 -12 305 -12 c 0
 168 -12 88 66 88 202 c 0xcc
 88 398 233 548 422 548 c 0
403 458 m 0
 315 458 241 339 241 197 c 0
 241 117 269 78 325 78 c 0
 413 78 488 197 488 338 c 0
 488 418 460 458 403 458 c 0
337 626 m 1
 265 626 l 1
 290 736 329 783 394 783 c 0x10
 415 783 434 776 452 762 c 2
 468 750 l 2
 470 749 471 747 474 745 c 0
 477 742 478 741 481 739 c 0
 500 724 512 717 522 717 c 0
 543 717 557 738 567 783 c 1
 640 783 l 1
 614 674 575 626 510 626 c 0x20
 489 626 472 632 453 647 c 2
 436 660 l 1
 431 664 l 1
 428 667 l 2
 425 669 425 669 423 671 c 0
 411 683 392 693 382 693 c 0x10
 361 693 347 672 337 626 c 1
EndSplineSet
EndChar
StartChar: odieresis
Encoding: 246 246 95
Width: 611
Flags: MW
HStem: -12 90<297 369 297 400.5> 458 90<359 431.5> 627 108<279 409 300 387 506 592 300 484>
VStem: 88 153<157 268 157 300> 488 153<267.5 378>
LayerCount: 2
Fore
SplineSet
422 548 m 0
 562 548 641 471 641 334 c 0
 641 137 496 -12 305 -12 c 0
 168 -12 88 66 88 202 c 0xd8
 88 398 233 548 422 548 c 0
403 458 m 0
 315 458 241 339 241 197 c 0
 241 117 269 78 325 78 c 0
 413 78 488 197 488 338 c 0
 488 418 460 458 403 458 c 0
279 627 m 1
 300 735 l 1
 409 735 l 1
 387 627 l 1x20
 279 627 l 1
484 627 m 1
 506 735 l 1
 614 735 l 1
 592 627 l 1
 484 627 l 1
EndSplineSet
EndChar
StartChar: divide
Encoding: 247 247 262
Width: 584
Flags: MW
HStem: 18 121<236 380 260 356> 248 84<101 600 118 583> 440 120<320 465 344 441>
LayerCount: 2
Fore
SplineSet
320 440 m 1
 344 560 l 1
 465 560 l 1
 441 440 l 1
 320 440 l 1
236 18 m 1
 260 139 l 1
 380 139 l 1
 356 18 l 1
 236 18 l 1
101 248 m 1
 118 332 l 1
 600 332 l 1
 583 248 l 1
 101 248 l 1
EndSplineSet
EndChar
StartChar: oslash
Encoding: 248 248 194
Width: 611
Flags: MW
HStem: -12 91<305.5 364.5 305.5 398> 458 90<354 413.5>
LayerCount: 2
Fore
SplineSet
34 -12 m 1
 117 71 l 1
 93 111 83 148 83 202 c 0
 83 397 227 548 415 548 c 0
 474 548 517 536 559 509 c 1
 599 548 l 1
 684 548 l 1
 601 466 l 1
 626 425 636 387 636 334 c 0
 636 138 492 -12 304 -12 c 0
 246 -12 202 0 159 28 c 1
 119 -12 l 1
 34 -12 l 1
236 188 m 1
 467 417 l 1
 451 445 429 458 398 458 c 0
 310 458 236 339 236 198 c 2
 236 188 l 1
483 348 m 1
 252 120 l 1
 268 91 290 79 321 79 c 0
 408 79 483 198 483 337 c 2
 483 348 l 1
EndSplineSet
EndChar
StartChar: ucircumflex
Encoding: 251 251 109
Width: 611
Flags: W
HStem: -12 20 0 20 516 20<174 318 318 318 501 646 646 646>
LayerCount: 2
Fore
SplineSet
394 0 m 1
 412 89 l 1
 337 18 277 -12 207 -12 c 0x80
 130 -12 91 24 91 95 c 0
 91 112 94 139 97 157 c 2
 174 536 l 1
 318 536 l 1
 249 193 l 2
 246 177 243 153 243 143 c 0
 243 116 259 102 288 102 c 0
 328 102 371 127 431 186 c 1
 501 536 l 1
 646 536 l 1
 539 0 l 1x60
 394 0 l 1
243 626 m 1
 391 783 l 1
 525 783 l 1
 611 626 l 1
 524 626 l 1
 447 722 l 1
 446 722 l 1
 330 626 l 1
 243 626 l 1
EndSplineSet
EndChar
StartChar: udieresis
Encoding: 252 252 106
Width: 611
Flags: W
HStem: -12 20 0 20 516 20<174 318 318 318 501 646 646 646> 627 108<271 401 292 379 498 584 292 476>
LayerCount: 2
Fore
SplineSet
394 0 m 1
 412 89 l 1
 337 18 277 -12 207 -12 c 0x80
 130 -12 91 24 91 95 c 0
 91 112 94 139 97 157 c 2
 174 536 l 1
 318 536 l 1
 249 193 l 2
 246 177 243 153 243 143 c 0
 243 116 259 102 288 102 c 0
 328 102 371 127 431 186 c 1
 501 536 l 1
 646 536 l 1
 539 0 l 1x60
 394 0 l 1
271 627 m 1
 292 735 l 1
 401 735 l 1
 379 627 l 1x10
 271 627 l 1
476 627 m 1
 498 735 l 1
 606 735 l 1
 584 627 l 1
 476 627 l 1
EndSplineSet
EndChar
StartChar: yacute
Encoding: 253 253 112
Width: 556
Flags: MW
HStem: 0 20 516 20<119 272 272 272 544 651 651 651>
LayerCount: 2
Fore
SplineSet
205 0 m 1
 119 536 l 1
 272 536 l 1
 327 189 l 1
 544 536 l 1
 651 536 l 1
 192 -193 l 1
 45 -193 l 1xc0
 205 0 l 1
321 626 m 1
 469 783 l 1
 602 783 l 1
 414 626 l 1
 321 626 l 1
EndSplineSet
EndChar
StartChar: thorn
Encoding: 254 254 202
Width: 611
Flags: W
HStem: -12 89<306 362.5 305.5 410.5> 0 20 528 20<465 543.5>
VStem: 481 156<268.5 377>
LayerCount: 2
Fore
SplineSet
179 -193 m 1x50
 34 -193 l 1
 227 771 l 1
 371 771 l 1
 307 447 l 1
 377 518 433 548 497 548 c 0
 590 548 637 486 637 364 c 0
 637 150 501 -12 320 -12 c 0xb0
 292 -12 263 -9 217 0 c 1
 179 -193 l 1x50
287 350 m 1
 235 86 l 1
 271 80 297 77 314 77 c 0
 411 77 481 190 481 347 c 0
 481 407 461 435 418 435 c 0
 379 435 339 409 287 350 c 1
EndSplineSet
EndChar
StartChar: ydieresis
Encoding: 255 255 116
Width: 556
Flags: MW
HStem: 0 20 516 20<119 272 272 272 544 651 651 651> 627 108<257 387 278 365 484 570 278 462>
LayerCount: 2
Fore
SplineSet
205 0 m 1
 119 536 l 1
 272 536 l 1
 327 189 l 1
 544 536 l 1
 651 536 l 1
 192 -193 l 1
 45 -193 l 1xc0
 205 0 l 1
257 627 m 1
 278 735 l 1
 387 735 l 1
 365 627 l 1x20
 257 627 l 1
462 627 m 1
 484 735 l 1
 592 735 l 1
 570 627 l 1
 462 627 l 1
EndSplineSet
EndChar
StartChar: Amacron
Encoding: 281 256 52
Width: 722
Flags: MW
HStem: 0 20 193 96<285 509 285 527 228 509> 703 20<431 581 581 581> 784 84<334 713 351 696>
LayerCount: 2
Fore
SplineSet
6 0 m 1
 431 723 l 1
 581 723 l 1
 716 0 l 1
 562 0 l 1
 527 193 l 1
 228 193 l 1
 116 0 l 1
 6 0 l 1
285 289 m 1
 509 289 l 1
 454 577 l 1
 285 289 l 1
334 784 m 1
 351 868 l 1
 713 868 l 1
 696 784 l 1
 334 784 l 1
EndSplineSet
EndChar
StartChar: Abreve
Encoding: 256 258 4
Width: 722
Flags: MW
HStem: 0 20 193 96<285 509 285 527 228 509> 703 20<431 581 581 581> 783 87<506 559.5 506 563.5>
LayerCount: 2
Fore
SplineSet
6 0 m 1
 431 723 l 1
 581 723 l 1
 716 0 l 1
 562 0 l 1
 527 193 l 1
 228 193 l 1
 116 0 l 1
 6 0 l 1
285 289 m 1
 509 289 l 1
 454 577 l 1
 285 289 l 1
374 940 m 1
 446 940 l 1
 452 892 479 870 533 870 c 0
 586 870 621 891 647 940 c 1
 719 940 l 1
 686 841 611 783 516 783 c 0
 432 783 372 838 372 913 c 2
 373 936 l 1
 374 940 l 1
EndSplineSet
EndChar
StartChar: Aogonek
Encoding: 257 260 7
Width: 722
Flags: MW
HStem: -181 46<517.5 615> 0 20 193 96<285 509 285 527 228 509> 703 20<431 581 581 581>
VStem: 431 100<-109 -93>
LayerCount: 2
Fore
SplineSet
6 0 m 1
 431 723 l 1
 581 723 l 1
 716 0 l 1
 562 0 l 1
 527 193 l 1
 228 193 l 1
 116 0 l 1
 6 0 l 1
285 289 m 1
 509 289 l 1
 454 577 l 1
 285 289 l 1
562 0 m 1
 639 0 l 1
 564 -34 531 -63 531 -96 c 0
 531 -122 555 -135 602 -135 c 0
 628 -135 649 -132 669 -127 c 1
 660 -167 l 1
 628 -177 597 -181 560 -181 c 0
 475 -181 431 -158 431 -115 c 0
 431 -71 470 -37 562 0 c 1
EndSplineSet
EndChar
StartChar: aogonek
Encoding: 295 261 73
Width: 556
Flags: MW
HStem: -181 46<399.5 400.5> -12 20 0 20 459 89<347.5 361>
VStem: 61 100 61 144<123 172 123 175.5> 409 141<423 425.5>
LayerCount: 2
Fore
SplineSet
544 83 m 1
 532 1 l 1
 495 -8 471 -12 447 -12 c 0
 388 -12 357 9 347 58 c 1
 341 58 l 1
 292 9 248 -12 191 -12 c 0
 111 -12 61 34 61 109 c 0
 61 242 176 327 356 327 c 2
 395 327 l 1
 405 376 l 2
 408 391 409 400 409 409 c 0
 409 442 385 459 337 459 c 0
 287 459 234 444 165 411 c 1
 186 511 l 1
 254 537 314 548 381 548 c 0
 493 548 550 509 550 430 c 0
 550 416 548 400 544 381 c 2
 497 143 l 2
 494 129 493 120 493 113 c 0
 493 92 504 81 524 81 c 0x56
 530 81 539 82 544 83 c 1
357 135 m 1
 378 244 l 1
 344 244 l 2
 260 244 205 203 205 141 c 0
 205 105 225 86 262 86 c 0
 297 86 325 101 357 135 c 1
384 0 m 1
 461 0 l 1
 385 -34 352 -63 352 -96 c 0
 352 -122 376 -135 423 -135 c 0
 450 -135 471 -132 490 -127 c 1
 482 -167 l 1
 449 -177 419 -181 382 -181 c 0
 296 -181 252 -158 252 -115 c 0xa8
 252 -71 292 -37 384 0 c 1
EndSplineSet
EndChar
StartChar: Cacute
Encoding: 258 262 9
Width: 722
Flags: MW
HStem: -18 104<413.5 481.5> 642 99<533 618>
VStem: 108 162<219.5 331.5 219.5 344.5>
LayerCount: 2
Fore
SplineSet
721 140 m 1
 699 29 l 1
 616 -3 532 -18 431 -18 c 0
 213 -18 108 75 108 266 c 0
 108 423 178 570 293 658 c 0
 369 715 462 741 594 741 c 0
 676 741 748 733 829 713 c 1
 805 595 l 1
 715 629 651 642 585 642 c 0
 481 642 405 606 349 532 c 0
 298 463 270 376 270 287 c 0
 270 152 341 86 486 86 c 0
 564 86 637 103 721 140 c 1
506 783 m 1
 655 940 l 1
 788 940 l 1
 600 783 l 1
 506 783 l 1
EndSplineSet
EndChar
StartChar: Ccaron
Encoding: 259 268 10
Width: 722
Flags: MW
HStem: -18 104<413.5 481.5> 642 99<533 618>
VStem: 108 162<219.5 331.5 219.5 344.5>
LayerCount: 2
Fore
SplineSet
721 140 m 1
 699 29 l 1
 616 -3 532 -18 431 -18 c 0
 213 -18 108 75 108 266 c 0
 108 423 178 570 293 658 c 0
 369 715 462 741 594 741 c 0
 676 741 748 733 829 713 c 1
 805 595 l 1
 715 629 651 642 585 642 c 0
 481 642 405 606 349 532 c 0
 298 463 270 376 270 287 c 0
 270 152 341 86 486 86 c 0
 564 86 637 103 721 140 c 1
808 964 m 1
 659 807 l 1
 525 807 l 1
 439 964 l 1
 526 964 l 1
 604 868 l 1
 605 868 l 1
 720 964 l 1
 808 964 l 1
EndSplineSet
EndChar
StartChar: ccaron
Encoding: 297 269 75
Width: 556
Flags: MW
HStem: -12 96<338 360> 451 97<388 466>
VStem: 87 155<174.5 286.5 174.5 306>
LayerCount: 2
Fore
SplineSet
542 112 m 1
 522 12 l 1
 444 -5 387 -12 333 -12 c 0
 168 -12 87 59 87 203 c 0
 87 409 236 548 458 548 c 0
 513 548 563 542 621 527 c 1
 600 423 l 1
 529 443 485 451 447 451 c 0
 329 451 242 353 242 220 c 0
 242 129 290 84 386 84 c 0xe0
 427 84 477 93 542 112 c 1
674 783 m 1
 525 626 l 1
 391 626 l 1
 305 783 l 1
 392 783 l 1
 470 686 l 1
 471 686 l 1
 586 783 l 1
 674 783 l 1
EndSplineSet
EndChar
StartChar: Dcaron
Encoding: 260 270 11
Width: 722
Flags: MW
HStem: 0 20 624 99<359 427 359 359>
VStem: 604 163<413 502>
LayerCount: 2
Fore
SplineSet
84 0 m 1
 229 723 l 1
 480 723 l 2
 673 723 767 639 767 468 c 0
 767 358 731 252 665 164 c 0
 582 54 469 0 322 0 c 2
 84 0 l 1
255 103 m 1
 308 103 l 2
 411 103 484 138 535 214 c 0
 579 280 604 361 604 441 c 0
 604 563 545 624 427 624 c 2
 359 624 l 1
 255 103 l 1
703 964 m 1
 554 807 l 1
 420 807 l 1
 334 964 l 1
 421 964 l 1
 499 868 l 1
 500 868 l 1
 615 964 l 1
 703 964 l 1
EndSplineSet
EndChar
StartChar: dcaron
Encoding: 298 271 77
Width: 719
Flags: W
HStem: -12 20 0 20 459 89<357.5 414 310 414.5>
VStem: 83 156<159 267.5 159 279.5>
LayerCount: 2
Fore
SplineSet
396 0 m 1x70
 413 89 l 1
 343 18 287 -12 223 -12 c 0x90
 130 -12 83 50 83 173 c 0
 83 386 220 548 400 548 c 0
 428 548 456 545 503 536 c 1
 550 771 l 1
 694 771 l 1
 540 0 l 1
 396 0 l 1x70
433 186 m 1x70
 486 450 l 1
 449 456 423 459 406 459 c 0
 309 459 239 346 239 189 c 0
 239 129 259 101 302 101 c 0
 341 101 380 126 433 186 c 1x70
775 626 m 1
 720 626 l 1
 749 771 l 1
 875 771 l 1
 853 659 l 2
 829 547 777 490 691 482 c 1
 701 532 l 1
 738 532 761 558 772 612 c 2
 775 626 l 1
EndSplineSet
EndChar
StartChar: dcroat
Encoding: 338 273 199
Width: 611
Flags: W
HStem: -12 20 0 20 459 89<357.5 414 310 414.5> 603 84<406 516 390 533 677 733>
VStem: 83 156<159 267.5 159 279.5>
LayerCount: 2
Fore
SplineSet
540 0 m 1x78
 396 0 l 1x68
 413 89 l 1
 343 18 287 -12 223 -12 c 0x88
 130 -12 83 50 83 173 c 0
 83 386 220 548 400 548 c 0
 428 548 456 545 503 536 c 1
 516 603 l 1
 390 603 l 1
 406 687 l 1
 533 687 l 1
 550 771 l 1
 694 771 l 1
 677 687 l 1
 750 687 l 1
 733 603 l 1
 661 603 l 1
 540 0 l 1x78
433 186 m 1
 486 450 l 1
 449 456 423 459 406 459 c 0
 309 459 239 346 239 189 c 0
 239 129 259 101 302 101 c 0
 341 101 380 126 433 186 c 1
EndSplineSet
EndChar
StartChar: Emacron
Encoding: 283 274 55
Width: 667
Flags: MW
HStem: 0 103<255 637> 325 97<319 625 300 645> 624 99<359 739 359 359> 784 84<337 715 354 698>
LayerCount: 2
Fore
SplineSet
84 0 m 1
 229 723 l 1
 759 723 l 1
 739 624 l 1
 359 624 l 1
 319 422 l 1
 645 422 l 1
 625 325 l 1
 300 325 l 1
 255 103 l 1
 658 103 l 1
 637 0 l 1
 84 0 l 1
337 784 m 1
 354 868 l 1
 715 868 l 1
 698 784 l 1
 337 784 l 1
EndSplineSet
EndChar
StartChar: emacron
Encoding: 319 275 119
Width: 556
Flags: MW
HStem: -12 98<326 356> 239 82<255 429 255 555 240 429> 458 90<351.5 398> 627 84<235 613 252 596>
VStem: 88 150<165 208 165 303> 437 134<377.5 410.5>
LayerCount: 2
Fore
SplineSet
531 120 m 1
 511 18 l 1
 444 -3 386 -12 326 -12 c 0
 167 -12 88 61 88 207 c 0
 88 399 223 548 397 548 c 0
 512 548 571 488 571 370 c 0
 571 338 566 298 555 239 c 1
 240 239 l 1
 239 225 238 212 238 204 c 0
 238 126 282 86 370 86 c 0xec
 416 86 464 96 531 120 c 1
255 321 m 1
 429 321 l 1
 435 348 437 368 437 387 c 0
 437 434 417 458 379 458 c 0
 324 458 286 416 255 321 c 1
235 627 m 1
 252 711 l 1
 613 711 l 1
 596 627 l 1x10
 235 627 l 1
EndSplineSet
EndChar
StartChar: edotaccent
Encoding: 300 279 83
Width: 556
Flags: MW
HStem: -12 98<326 356> 239 82<255 429 255 555 240 429> 458 90<351.5 398> 626 145<343 516 372 488>
VStem: 88 150<165 208 165 303> 437 134<377.5 410.5>
LayerCount: 2
Fore
SplineSet
531 120 m 1
 511 18 l 1
 444 -3 386 -12 326 -12 c 0
 167 -12 88 61 88 207 c 0
 88 399 223 548 397 548 c 0
 512 548 571 488 571 370 c 0
 571 338 566 298 555 239 c 1
 240 239 l 1
 239 225 238 212 238 204 c 0
 238 126 282 86 370 86 c 0xec
 416 86 464 96 531 120 c 1
255 321 m 1
 429 321 l 1
 435 348 437 368 437 387 c 0
 437 434 417 458 379 458 c 0
 324 458 286 416 255 321 c 1
343 626 m 1
 372 771 l 1
 516 771 l 1
 488 626 l 1x10
 343 626 l 1
EndSplineSet
EndChar
StartChar: Eogonek
Encoding: 263 280 18
Width: 667
Flags: MW
HStem: -181 46<436.5 534> 0 103<255 637 481 559 559 559> 325 97<319 625 300 645> 624 99<359 739 359 359>
VStem: 350 100<-109 -93>
LayerCount: 2
Fore
SplineSet
84 0 m 1
 229 723 l 1
 759 723 l 1
 739 624 l 1
 359 624 l 1
 319 422 l 1
 645 422 l 1
 625 325 l 1
 300 325 l 1
 255 103 l 1
 658 103 l 1
 637 0 l 1
 84 0 l 1
481 0 m 1
 559 0 l 1
 482 -34 450 -63 450 -96 c 0
 450 -122 474 -135 521 -135 c 0
 547 -135 568 -132 587 -127 c 1
 580 -167 l 1
 547 -177 516 -181 479 -181 c 0
 394 -181 350 -158 350 -115 c 0
 350 -71 389 -37 481 0 c 1
EndSplineSet
EndChar
StartChar: eogonek
Encoding: 301 281 84
Width: 556
Flags: MW
HStem: -181 46<331.5 332.5> -12 98<326 356> 0 20 239 82<255 429 255 555 240 429> 458 90<351.5 398>
VStem: 88 100 88 150<165 208 165 303> 437 134<377.5 410.5>
LayerCount: 2
Fore
SplineSet
531 120 m 1
 511 18 l 1
 444 -3 386 -12 326 -12 c 0
 167 -12 88 61 88 207 c 0
 88 399 223 548 397 548 c 0
 512 548 571 488 571 370 c 0
 571 338 566 298 555 239 c 1
 240 239 l 1
 239 225 238 212 238 204 c 0
 238 126 282 86 370 86 c 0x5b
 416 86 464 96 531 120 c 1
255 321 m 1
 429 321 l 1
 435 348 437 368 437 387 c 0
 437 434 417 458 379 458 c 0
 324 458 286 416 255 321 c 1
316 0 m 1
 393 0 l 1
 317 -34 284 -63 284 -96 c 0
 284 -122 308 -135 355 -135 c 0
 382 -135 403 -132 422 -127 c 1
 414 -167 l 1
 381 -177 351 -181 314 -181 c 0
 228 -181 184 -158 184 -115 c 0xa4
 184 -71 224 -37 316 0 c 1
EndSplineSet
EndChar
StartChar: Ecaron
Encoding: 261 282 16
Width: 667
Flags: MW
HStem: 0 103<255 637> 325 97<319 625 300 645> 624 99<359 739 359 359>
LayerCount: 2
Fore
SplineSet
84 0 m 1
 229 723 l 1
 759 723 l 1
 739 624 l 1
 359 624 l 1
 319 422 l 1
 645 422 l 1
 625 325 l 1
 300 325 l 1
 255 103 l 1
 658 103 l 1
 637 0 l 1
 84 0 l 1
722 940 m 1
 573 783 l 1
 439 783 l 1
 353 940 l 1
 440 940 l 1
 518 843 l 1
 519 843 l 1
 635 940 l 1
 722 940 l 1
EndSplineSet
EndChar
StartChar: Gbreve
Encoding: 264 286 19
Width: 778
Flags: MW
HStem: -19 102<412 494.5> 252 99<509 612 490 782> 642 99<534 620> 783 87<581 634.5 581 637.5>
VStem: 108 162<217 328.5 217 344>
LayerCount: 2
Fore
SplineSet
782 351 m 1
 715 17 l 1
 610 -8 534 -19 455 -19 c 0
 213 -19 108 67 108 266 c 0
 108 422 178 570 293 658 c 0
 369 716 463 741 605 741 c 0
 696 741 772 733 854 713 c 1
 831 595 l 1
 731 628 655 642 585 642 c 0
 482 642 406 606 350 531 c 0
 299 462 270 373 270 284 c 0
 270 150 341 83 483 83 c 0
 507 83 540 86 580 90 c 1
 612 252 l 1
 490 252 l 1
 509 351 l 1
 782 351 l 1
448 940 m 1
 521 940 l 1
 527 892 554 870 608 870 c 0
 661 870 696 891 721 940 c 1
 794 940 l 1
 760 841 685 783 590 783 c 0
 507 783 447 838 447 913 c 0
 447 919 447 924 448 940 c 1
EndSplineSet
EndChar
StartChar: Gcommaaccent
Encoding: 291 290 63
Width: 778
Flags: MW
HStem: -211 51<351.5 358 329 400.5> -19 102<412 494.5> 252 99<509 612 490 782> 642 99<534 620.5>
VStem: 108 162<217 328.5 217 344> 404 97<-136.5 -116.5>
LayerCount: 2
Fore
SplineSet
782 351 m 1
 715 17 l 1
 607 -9 534 -19 455 -19 c 0
 213 -19 108 67 108 266 c 0
 108 422 178 570 293 658 c 0
 369 716 463 741 605 741 c 0
 697 741 771 733 854 713 c 1
 831 595 l 1
 730 628 656 642 585 642 c 0
 482 642 406 606 350 531 c 0
 299 462 270 373 270 284 c 0
 270 150 341 83 483 83 c 0
 507 83 536 85 580 90 c 1
 612 252 l 1
 490 252 l 1
 509 351 l 1
 782 351 l 1
330 -96 m 1
 339 -47 l 1
 452 -49 501 -71 501 -120 c 0
 501 -170 438 -211 363 -211 c 0
 340 -211 313 -209 272 -205 c 1
 281 -157 l 1
 302 -159 322 -160 336 -160 c 0
 380 -160 404 -148 404 -125 c 0
 404 -108 386 -99 348 -97 c 2
 330 -96 l 1
EndSplineSet
EndChar
StartChar: gcommaaccent
Encoding: 330 291 130
Width: 611
Flags: W
HStem: -205 103<197 272.5 197 278> 0 20 516 20<501 646 646 646> 528 20<353 412>
LayerCount: 2
Fore
SplineSet
434 199 m 1xa0
 484 450 l 1
 443 457 421 460 404 460 c 0
 308 460 239 352 239 202 c 0
 239 142 259 113 302 113 c 0
 342 113 381 139 434 199 c 1xa0
402 42 m 2
 414 101 l 1
 344 30 288 0 224 0 c 0
 131 0 83 63 83 183 c 0
 83 283 116 374 180 449 c 0
 236 515 308 548 398 548 c 0x50
 426 548 454 545 501 536 c 1
 646 536 l 1
 564 127 l 2
 538 0 518 -57 482 -100 c 0
 426 -167 333 -205 223 -205 c 0
 158 -205 98 -193 27 -166 c 1
 48 -60 l 1
 118 -89 171 -102 223 -102 c 0
 322 -102 383 -53 402 42 c 2
492 771 m 1
 548 771 l 1
 519 626 l 1
 374 626 l 1
 397 738 l 2
 421 857 480 915 577 916 c 1
 567 865 l 1
 530 865 506 839 495 785 c 2
 492 771 l 1
EndSplineSet
EndChar
StartChar: Imacron
Encoding: 284 298 56
Width: 278
Flags: MW
HStem: 0 20 703 20<208 358 358 358> 784 84<114 493 131 476>
LayerCount: 2
Fore
SplineSet
63 0 m 1
 208 723 l 1
 358 723 l 1
 213 0 l 1
 63 0 l 1
114 784 m 1
 131 868 l 1
 493 868 l 1
 476 784 l 1
 114 784 l 1
EndSplineSet
EndChar
StartChar: imacron
Encoding: 320 299 120
Width: 278
Flags: MW
HStem: 0 20 516 20<174 319 319 319> 627 84<84 462 101 445>
LayerCount: 2
Fore
SplineSet
67 0 m 1
 174 536 l 1
 319 536 l 1
 212 0 l 1xc0
 67 0 l 1
84 627 m 1
 101 711 l 1
 462 711 l 1
 445 627 l 1x20
 84 627 l 1
EndSplineSet
EndChar
StartChar: Iogonek
Encoding: 285 302 57
Width: 278
Flags: MW
HStem: -181 46<84.5 182.5> 0 20 703 20<209 360 360 360>
VStem: -2 100<-109 -93>
LayerCount: 2
Fore
SplineSet
65 0 m 1
 209 723 l 1
 360 723 l 1
 215 0 l 1
 65 0 l 1
130 0 m 1
 207 0 l 1
 130 -34 98 -63 98 -96 c 0
 98 -122 122 -135 170 -135 c 0
 195 -135 217 -132 236 -127 c 1
 228 -167 l 1
 195 -177 164 -181 127 -181 c 0
 42 -181 -2 -158 -2 -115 c 0
 -2 -71 38 -37 130 0 c 1
EndSplineSet
EndChar
StartChar: iogonek
Encoding: 331 303 131
Width: 278
Flags: MW
HStem: -181 46<84.5 182.5> 0 20 516 20<175 320 320 320> 626 121<193 362 217 338>
VStem: -2 100<-109 -93>
LayerCount: 2
Fore
SplineSet
68 0 m 1
 175 536 l 1
 320 536 l 1
 212 0 l 1
 68 0 l 1
193 626 m 1
 217 747 l 1
 362 747 l 1
 338 626 l 1
 193 626 l 1
129 0 m 1
 206 0 l 1
 130 -34 98 -63 98 -96 c 0
 98 -122 122 -135 170 -135 c 0
 195 -135 217 -132 236 -127 c 1
 227 -167 l 1
 195 -177 164 -181 127 -181 c 0
 42 -181 -2 -158 -2 -115 c 0
 -2 -71 38 -37 129 0 c 1
EndSplineSet
EndChar
StartChar: Idotaccent
Encoding: 265 304 24
Width: 278
Flags: MW
HStem: 0 20 703 20<208 358 358 358> 783 145<223 396 251 367>
LayerCount: 2
Fore
SplineSet
63 0 m 1
 208 723 l 1
 358 723 l 1
 213 0 l 1
 63 0 l 1
223 783 m 1
 251 928 l 1
 396 928 l 1
 367 783 l 1
 223 783 l 1
EndSplineSet
EndChar
StartChar: dotlessi
Encoding: 335 305 196
Width: 278
Flags: MW
HStem: 0 20 516 20<174 319 319 319>
LayerCount: 2
Fore
SplineSet
67 0 m 1
 174 536 l 1
 319 536 l 1
 212 0 l 1xc0
 67 0 l 1
EndSplineSet
EndChar
StartChar: Kcommaaccent
Encoding: 286 310 58
Width: 722
Flags: MW
HStem: -211 51<291.5 298 269 340.5> 0 20 703 20<229 373 373 373 674 798 798 798>
VStem: 344 97<-136.5 -116.5>
LayerCount: 2
Fore
SplineSet
84 0 m 1
 229 723 l 1
 373 723 l 1
 303 372 l 1
 674 723 l 1
 798 723 l 1
 459 399 l 1
 714 0 l 1
 526 0 l 1
 300 356 l 1
 229 0 l 1
 84 0 l 1
270 -96 m 1
 279 -47 l 1
 392 -49 441 -71 441 -120 c 0
 441 -170 378 -211 303 -211 c 0
 280 -211 253 -209 212 -205 c 1
 221 -157 l 1
 242 -159 262 -160 276 -160 c 0
 320 -160 344 -148 344 -125 c 0
 344 -108 326 -99 288 -97 c 2
 270 -96 l 1
EndSplineSet
EndChar
StartChar: kcommaaccent
Encoding: 321 311 121
Width: 556
Flags: MW
HStem: -211 51<256.5 262.5 233 305> 0 20 516 20<502 621 621 621>
VStem: 205 96
LayerCount: 2
Fore
SplineSet
72 0 m 1
 226 771 l 1
 371 771 l 1
 274 286 l 1
 283 286 l 1
 502 536 l 1
 621 536 l 1
 418 303 l 1
 551 0 l 1
 397 0 l 1
 280 268 l 1
 270 268 l 1
 217 0 l 1x60
 72 0 l 1
234 -96 m 1
 244 -47 l 1
 356 -49 405 -71 405 -120 c 0
 405 -170 342 -211 268 -211 c 0
 245 -211 218 -209 176 -205 c 1
 186 -157 l 1
 206 -159 226 -160 240 -160 c 0
 285 -160 309 -148 309 -125 c 0
 309 -108 291 -99 252 -97 c 2x90
 234 -96 l 1
EndSplineSet
EndChar
StartChar: Lacute
Encoding: 266 313 25
Width: 611
Flags: MW
HStem: 0 103<255 602> 703 20<229 379 379 379>
LayerCount: 2
Fore
SplineSet
84 0 m 1
 229 723 l 1
 379 723 l 1
 255 103 l 1
 622 103 l 1
 602 0 l 1
 84 0 l 1
299 789 m 1
 448 946 l 1
 581 946 l 1
 393 789 l 1
 299 789 l 1
EndSplineSet
EndChar
StartChar: lacute
Encoding: 303 314 90
Width: 278
Flags: MW
HStem: 0 20
LayerCount: 2
Fore
SplineSet
67 0 m 1
 221 771 l 1
 366 771 l 1
 212 0 l 1x80
 67 0 l 1
210 819 m 1
 358 976 l 1
 491 976 l 1
 303 819 l 1
 210 819 l 1
EndSplineSet
EndChar
StartChar: Lcommaaccent
Encoding: 287 315 59
Width: 611
Flags: MW
HStem: -211 51<291.5 298 269 340.5> 0 103<255 602> 703 20<229 379 379 379>
VStem: 344 97<-136.5 -116.5>
LayerCount: 2
Fore
SplineSet
84 0 m 1
 229 723 l 1
 379 723 l 1
 255 103 l 1
 622 103 l 1
 602 0 l 1
 84 0 l 1
270 -96 m 1
 279 -47 l 1
 392 -49 441 -71 441 -120 c 0
 441 -170 378 -211 303 -211 c 0
 280 -211 253 -209 212 -205 c 1
 221 -157 l 1
 242 -159 262 -160 276 -160 c 0
 320 -160 344 -148 344 -125 c 0
 344 -108 326 -99 288 -97 c 2
 270 -96 l 1
EndSplineSet
EndChar
StartChar: lcommaaccent
Encoding: 322 316 122
Width: 278
Flags: MW
HStem: -211 51<76.5 82.5 53 125.5> 0 20
VStem: 129 97<-136.5 -116.5>
LayerCount: 2
Fore
SplineSet
67 0 m 1
 222 771 l 1
 366 771 l 1
 212 0 l 1
 67 0 l 1
54 -96 m 1
 64 -47 l 1
 177 -49 226 -71 226 -120 c 0
 226 -170 163 -211 88 -211 c 0
 65 -211 38 -209 -4 -205 c 1
 6 -157 l 1
 26 -159 46 -160 60 -160 c 0
 105 -160 129 -148 129 -125 c 0
 129 -108 111 -99 72 -97 c 2
 54 -96 l 1
EndSplineSet
EndChar
StartChar: Lcaron
Encoding: 267 317 26
Width: 611
Flags: MW
HStem: 0 103<255 602> 703 20<229 379 379 379 536 662 662 662>
LayerCount: 2
Fore
SplineSet
84 0 m 1
 229 723 l 1
 379 723 l 1
 255 103 l 1
 622 103 l 1
 602 0 l 1
 84 0 l 1
563 578 m 1
 507 578 l 1
 536 723 l 1
 662 723 l 1
 640 611 l 2
 616 499 564 442 478 434 c 1
 488 484 l 1
 525 484 548 510 560 564 c 2
 563 578 l 1
EndSplineSet
EndChar
StartChar: lcaron
Encoding: 304 318 91
Width: 385
Flags: MW
HStem: 0 20
LayerCount: 2
Fore
SplineSet
67 0 m 1
 221 771 l 1
 366 771 l 1
 212 0 l 1
 67 0 l 1
441 626 m 1
 385 626 l 1
 414 771 l 1
 541 771 l 1
 518 659 l 2
 495 547 443 490 356 482 c 1
 366 532 l 1
 403 532 426 558 438 612 c 2
 441 626 l 1
EndSplineSet
EndChar
StartChar: Lslash
Encoding: 334 321 164
Width: 611
Flags: MW
HStem: 0 103<255 601> 703 20<228 379 379 379>
LayerCount: 2
Fore
SplineSet
84 0 m 1
 142 291 l 1
 49 248 l 1
 68 342 l 1
 161 386 l 1
 228 723 l 1
 379 723 l 1
 328 467 l 1
 461 532 l 1
 442 436 l 1
 308 371 l 1
 255 103 l 1
 622 103 l 1
 601 0 l 1
 84 0 l 1
EndSplineSet
EndChar
StartChar: lslash
Encoding: 339 322 200
Width: 278
Flags: MW
HStem: 0 20
LayerCount: 2
Fore
SplineSet
67 0 m 1
 129 309 l 1
 55 273 l 1
 75 370 l 1
 148 406 l 1
 222 771 l 1
 366 771 l 1
 308 483 l 1
 382 518 l 1
 363 423 l 1
 289 388 l 1
 212 0 l 1
 67 0 l 1
EndSplineSet
EndChar
StartChar: Nacute
Encoding: 268 323 27
Width: 722
Flags: MW
HStem: 0 20 703 20<229 361 361 361 662 782 782 782>
LayerCount: 2
Fore
SplineSet
84 0 m 1
 229 723 l 1
 361 723 l 1
 563 229 l 1
 662 723 l 1
 782 723 l 1
 637 0 l 1
 503 0 l 1
 303 494 l 1
 205 0 l 1
 84 0 l 1
449 789 m 1
 598 946 l 1
 730 946 l 1
 542 789 l 1
 449 789 l 1
EndSplineSet
EndChar
StartChar: Ncommaaccent
Encoding: 288 325 60
Width: 722
Flags: MW
HStem: -211 51<291.5 298 269 340.5> 0 20 703 20<229 361 361 361 662 782 782 782>
VStem: 344 97<-136.5 -116.5>
LayerCount: 2
Fore
SplineSet
84 0 m 1
 229 723 l 1
 361 723 l 1
 563 229 l 1
 662 723 l 1
 782 723 l 1
 637 0 l 1
 503 0 l 1
 303 494 l 1
 205 0 l 1
 84 0 l 1
270 -96 m 1
 279 -47 l 1
 392 -49 441 -71 441 -120 c 0
 441 -170 378 -211 303 -211 c 0
 280 -211 253 -209 212 -205 c 1
 221 -157 l 1
 242 -159 262 -160 276 -160 c 0
 320 -160 344 -148 344 -125 c 0
 344 -108 326 -99 288 -97 c 2
 270 -96 l 1
EndSplineSet
EndChar
StartChar: ncommaaccent
Encoding: 323 326 123
Width: 611
Flags: W
HStem: -211 51<256.5 262.5 233 305> 0 20 516 20<179 324 324 324> 528 20<476 549>
VStem: 205 96
LayerCount: 2
Fore
SplineSet
72 0 m 1
 179 536 l 1
 324 536 l 1x60
 306 447 l 1
 381 518 441 548 511 548 c 0
 587 548 627 512 627 442 c 0
 627 424 624 399 620 379 c 2
 545 0 l 1
 400 0 l 1
 468 343 l 2
 472 362 475 383 475 394 c 0
 475 421 459 435 429 435 c 0
 389 435 346 409 286 350 c 1
 217 0 l 1x50
 72 0 l 1
234 -96 m 1
 244 -47 l 1
 356 -49 405 -71 405 -120 c 0
 405 -170 342 -211 268 -211 c 0
 245 -211 218 -209 176 -205 c 1
 186 -157 l 1
 206 -159 226 -160 240 -160 c 0
 285 -160 309 -148 309 -125 c 0
 309 -108 291 -99 252 -97 c 2x88
 234 -96 l 1
EndSplineSet
EndChar
StartChar: Ncaron
Encoding: 269 327 28
Width: 722
Flags: MW
HStem: 0 20 703 20<229 361 361 361 662 782 782 782>
LayerCount: 2
Fore
SplineSet
84 0 m 1
 229 723 l 1
 361 723 l 1
 563 229 l 1
 662 723 l 1
 782 723 l 1
 637 0 l 1
 503 0 l 1
 303 494 l 1
 205 0 l 1
 84 0 l 1
733 940 m 1
 584 783 l 1
 451 783 l 1
 364 940 l 1
 452 940 l 1
 529 843 l 1
 530 843 l 1
 646 940 l 1
 733 940 l 1
EndSplineSet
EndChar
StartChar: ncaron
Encoding: 306 328 93
Width: 611
Flags: W
HStem: 0 20 516 20<179 324 324 324> 528 20<476 549>
LayerCount: 2
Fore
SplineSet
72 0 m 1
 179 536 l 1
 324 536 l 1xc0
 306 447 l 1
 381 518 441 548 511 548 c 0
 587 548 627 512 627 442 c 0
 627 424 624 399 620 379 c 2
 545 0 l 1
 400 0 l 1
 468 343 l 2
 472 362 475 383 475 394 c 0
 475 421 459 435 429 435 c 0
 389 435 346 409 286 350 c 1
 217 0 l 1xa0
 72 0 l 1
637 783 m 1
 488 626 l 1
 354 626 l 1
 268 783 l 1
 355 783 l 1
 433 686 l 1
 434 686 l 1
 549 783 l 1
 637 783 l 1
EndSplineSet
EndChar
StartChar: Ohungarumlaut
Encoding: 270 336 35
Width: 778
Flags: MW
HStem: -18 99<359.5 436.5 359.5 454.5> 642 99<474.5 569.5>
VStem: 107 159<204 323.5> 667 160<400 518.5>
LayerCount: 2
Fore
SplineSet
543 741 m 0
 732 741 827 646 827 459 c 0
 827 341 789 230 717 137 c 0
 635 33 526 -18 383 -18 c 0
 200 -18 107 77 107 264 c 0
 107 383 145 494 217 586 c 0
 299 690 406 741 543 741 c 0
521 642 m 0
 379 642 266 475 266 266 c 0
 266 142 312 81 407 81 c 0
 466 81 518 105 560 151 c 0
 628 225 667 336 667 457 c 0
 667 580 618 642 521 642 c 0
398 783 m 1
 546 940 l 1
 658 940 l 1
 470 783 l 1
 398 783 l 1
581 783 m 1
 730 940 l 1
 842 940 l 1
 653 783 l 1
 581 783 l 1
EndSplineSet
EndChar
StartChar: OE
Encoding: 140 338 160
Width: 1000
Flags: W
HStem: -18 100<361 414.5> 0 103<673 976> 325 97<737 964 718 983> 624 99<778 1078 778 778> 642 99<484 545>
VStem: 107 159<204.5 316 204.5 323.5>
LayerCount: 2
Fore
SplineSet
976 0 m 1x74
 527 0 l 1x44
 481 -12 439 -18 390 -18 c 0
 202 -18 107 77 107 264 c 0
 107 383 145 494 217 586 c 0
 298 690 405 741 542 741 c 0x8c
 590 741 631 735 672 723 c 1
 1098 723 l 1
 1078 624 l 1
 778 624 l 1
 737 422 l 1
 983 422 l 1
 964 325 l 1
 718 325 l 1
 673 103 l 1
 996 103 l 1
 976 0 l 1x74
526 119 m 1x8c
 623 605 l 1
 585 637 570 642 520 642 c 0
 448 642 390 606 340 530 c 0
 291 456 266 366 266 266 c 0
 266 143 313 82 409 82 c 0
 450 82 485 93 526 119 c 1x8c
EndSplineSet
EndChar
StartChar: oe
Encoding: 156 339 193
Width: 944
Flags: W
HStem: -12 90<297 348> -12 98<715 745> 458 90<359 431.5 749.5 786>
VStem: 88 153<157 267.5 157 299.5>
LayerCount: 2
Fore
SplineSet
644 321 m 1x70
 818 321 l 1
 823 347 825 370 825 387 c 0
 825 434 805 458 767 458 c 0
 712 458 675 417 644 321 c 1x70
920 120 m 1
 900 18 l 1
 833 -2 774 -12 716 -12 c 0x70
 628 -12 569 10 519 63 c 1
 452 10 389 -12 307 -12 c 0x90
 167 -12 88 65 88 201 c 0
 88 398 232 548 421 548 c 0
 501 548 553 527 596 478 c 1
 656 527 713 548 786 548 c 0
 901 548 960 488 960 370 c 0
 960 337 955 300 944 239 c 1
 629 239 l 1
 627 215 627 212 627 204 c 0
 627 126 671 86 759 86 c 0
 805 86 854 96 920 120 c 1
403 458 m 0
 315 458 241 338 241 197 c 0
 241 117 269 78 325 78 c 0xb0
 414 78 488 197 488 338 c 0
 488 418 460 458 403 458 c 0
EndSplineSet
EndChar
StartChar: Racute
Encoding: 271 340 36
Width: 722
Flags: MW
HStem: 0 20 296 99<305 383 383 402 285 383> 624 99<351 447 351 351>
VStem: 577 155<531.5 573>
LayerCount: 2
Fore
SplineSet
84 0 m 1
 229 723 l 1
 543 723 l 2
 669 723 732 676 732 582 c 0
 732 481 661 387 546 338 c 1
 715 0 l 1
 546 0 l 1
 402 296 l 1
 285 296 l 1
 226 0 l 1
 84 0 l 1
305 395 m 1
 383 395 l 2
 496 395 577 458 577 547 c 0
 577 599 535 624 447 624 c 2
 351 624 l 1
 305 395 l 1
408 789 m 1
 556 946 l 1
 689 946 l 1
 501 789 l 1
 408 789 l 1
EndSplineSet
EndChar
StartChar: racute
Encoding: 308 341 101
Width: 389
Flags: W
HStem: 0 20 427 121<393 461> 516 20<191 336 336 336>
LayerCount: 2
Fore
SplineSet
84 0 m 1
 191 536 l 1
 336 536 l 1xa0
 318 447 l 1
 362 517 405 548 457 548 c 0
 465 548 473 547 482 545 c 1
 456 416 l 1
 439 424 425 427 412 427 c 0
 374 427 340 404 299 352 c 1
 229 0 l 1xc0
 84 0 l 1
233 626 m 1
 381 783 l 1
 514 783 l 1
 326 626 l 1
 233 626 l 1
EndSplineSet
EndChar
StartChar: Rcommaaccent
Encoding: 290 342 62
Width: 722
Flags: MW
HStem: -211 51<300.5 306.5 277.5 349.5> 0 20 296 99<305 383 383 402 285 383> 624 99<351 447 351 351>
VStem: 353 97<-136 -116.5> 577 155<531.5 573>
LayerCount: 2
Fore
SplineSet
84 0 m 1
 229 723 l 1
 543 723 l 2
 669 723 732 676 732 582 c 0
 732 481 661 387 546 338 c 1
 715 0 l 1
 546 0 l 1
 402 296 l 1
 285 296 l 1
 226 0 l 1
 84 0 l 1
305 395 m 1
 383 395 l 2
 496 395 577 458 577 547 c 0
 577 599 535 624 447 624 c 2
 351 624 l 1
 305 395 l 1
279 -96 m 1
 289 -47 l 1
 401 -49 450 -71 450 -120 c 0
 450 -170 387 -211 312 -211 c 0
 289 -211 263 -209 221 -205 c 1
 230 -157 l 1
 251 -159 271 -160 284 -160 c 0
 329 -160 353 -147 353 -125 c 0
 353 -108 335 -99 297 -97 c 2
 279 -96 l 1
EndSplineSet
EndChar
StartChar: rcommaaccent
Encoding: 325 343 125
Width: 389
Flags: W
HStem: -211 51<136 142 113 185> 0 20 427 121<394 462> 516 20<192 337 337 337>
VStem: 188 97<-136.5 -116.5>
LayerCount: 2
Fore
SplineSet
85 0 m 1x68
 192 536 l 1
 337 536 l 1xd8
 319 447 l 1
 363 517 406 548 458 548 c 0
 466 548 474 547 483 545 c 1
 457 416 l 1
 439 424 426 427 413 427 c 0
 375 427 340 404 300 352 c 1
 229 0 l 1
 85 0 l 1x68
114 -96 m 1
 123 -47 l 1
 236 -49 285 -71 285 -120 c 0
 285 -170 222 -211 148 -211 c 0
 124 -211 97 -209 56 -205 c 1
 66 -157 l 1
 86 -159 106 -160 120 -160 c 0
 164 -160 188 -148 188 -125 c 0
 188 -108 170 -99 132 -97 c 2
 114 -96 l 1
EndSplineSet
EndChar
StartChar: Rcaron
Encoding: 272 344 37
Width: 722
Flags: MW
HStem: 0 20 296 99<305 383 383 402 285 383> 624 99<351 447 351 351>
VStem: 577 155<531.5 573>
LayerCount: 2
Fore
SplineSet
84 0 m 1
 229 723 l 1
 543 723 l 2
 669 723 732 676 732 582 c 0
 732 481 661 387 546 338 c 1
 715 0 l 1
 546 0 l 1
 402 296 l 1
 285 296 l 1
 226 0 l 1
 84 0 l 1
305 395 m 1
 383 395 l 2
 496 395 577 458 577 547 c 0
 577 599 535 624 447 624 c 2
 351 624 l 1
 305 395 l 1
707 940 m 1
 558 783 l 1
 424 783 l 1
 338 940 l 1
 426 940 l 1
 503 843 l 1
 504 843 l 1
 620 940 l 1
 707 940 l 1
EndSplineSet
EndChar
StartChar: rcaron
Encoding: 328 345 128
Width: 389
Flags: W
HStem: 0 20 427 121<393 461> 516 20<191 336 336 336>
LayerCount: 2
Fore
SplineSet
84 0 m 1
 191 536 l 1
 336 536 l 1xa0
 318 447 l 1
 362 517 405 548 457 548 c 0
 465 548 473 547 482 545 c 1
 456 416 l 1
 439 424 425 427 412 427 c 0
 374 427 340 404 299 352 c 1
 229 0 l 1xc0
 84 0 l 1
536 783 m 1
 387 626 l 1
 253 626 l 1
 167 783 l 1
 254 783 l 1
 332 686 l 1
 333 686 l 1
 448 783 l 1
 536 783 l 1
EndSplineSet
EndChar
StartChar: Scedilla
Encoding: 274 350 40
Width: 667
Flags: W
HStem: -211 52<270.5 282 253 321.5> -18 99<282 365> 0 20 642 99<421 518.5>
VStem: 151 156<528 573.5> 326 96<-136 -113> 509 166<163.5 283.5>
LayerCount: 2
Fore
SplineSet
51 6 m 1x5e
 75 129 l 1
 171 95 242 81 322 81 c 0
 443 81 509 124 509 203 c 0
 509 232 493 254 461 267 c 2
 400 292 l 1
 326 322 l 2
 191 378 151 417 151 495 c 0
 151 652 276 741 496 741 c 0
 574 741 645 733 722 716 c 1
 699 602 l 1
 619 630 556 642 481 642 c 0
 361 642 307 611 307 542 c 0
 307 514 326 494 373 475 c 2
 424 453 l 1
 501 423 l 2
 619 375 675 319 675 248 c 0
 675 194 654 136 620 93 c 0
 561 19 448 -18 282 -18 c 0
 232 -18 178 -14 126 -5 c 2
 51 6 l 1x5e
304 0 m 1xae
 371 0 l 1
 323 -55 l 1
 392 -64 422 -84 422 -121 c 0
 422 -170 359 -211 284 -211 c 0
 257 -211 228 -206 195 -196 c 1
 203 -152 l 1
 227 -157 245 -159 261 -159 c 0
 303 -159 326 -147 326 -125 c 0
 326 -101 297 -89 238 -89 c 2
 228 -89 l 1
 304 0 l 1xae
EndSplineSet
EndChar
StartChar: scedilla
Encoding: 329 351 129
Width: 556
Flags: MW
HStem: -211 52<214.5 225 196.5 265> -12 90<241 305.5 241 340.5> 0 20 458 90<359.5 413>
VStem: 137 148<386 414> 194 97 386 155<126.5 155>
LayerCount: 2
Fore
SplineSet
64 18 m 1
 85 123 l 1
 159 91 214 78 268 78 c 0
 343 78 386 102 386 144 c 0
 386 166 365 184 313 207 c 2
 269 227 l 2
 159 275 137 296 137 355 c 0
 137 473 238 548 399 548 c 0
 450 548 502 542 570 529 c 1
 550 430 l 1
 477 450 432 458 394 458 c 0
 325 458 285 435 285 396 c 0
 285 376 303 361 353 340 c 2
 391 324 l 2
 512 274 541 246 541 185 c 0
 541 68 425 -12 256 -12 c 0x5a
 190 -12 131 -3 64 18 c 1
249 0 m 1
 315 0 l 1
 267 -55 l 1
 336 -64 366 -84 366 -121 c 0
 366 -170 302 -211 228 -211 c 0
 201 -211 173 -206 139 -196 c 1
 148 -152 l 1
 171 -157 189 -159 204 -159 c 0
 246 -159 269 -147 269 -125 c 0
 269 -101 240 -89 182 -89 c 2
 172 -89 l 1xa4
 249 0 l 1
EndSplineSet
EndChar
StartChar: Scaron
Encoding: 138 352 39
Width: 667
Flags: MW
HStem: -18 99<282 365> 642 99<421 518>
VStem: 151 156<528.5 573.5> 509 166<163.5 283.5>
LayerCount: 2
Fore
SplineSet
51 6 m 1
 75 129 l 1
 171 95 242 81 322 81 c 0
 443 81 509 124 509 203 c 0
 509 232 493 254 461 267 c 2
 400 292 l 1
 326 322 l 2
 191 378 151 417 151 495 c 0
 151 652 276 741 496 741 c 0
 574 741 645 733 722 716 c 1
 699 602 l 1
 620 630 556 642 480 642 c 0
 362 642 307 611 307 543 c 0
 307 514 326 494 373 475 c 2
 424 453 l 1
 501 423 l 2
 620 375 675 319 675 248 c 0
 675 194 654 136 620 93 c 0
 561 19 448 -18 282 -18 c 0
 232 -18 179 -14 126 -5 c 2
 51 6 l 1
708 940 m 1
 559 783 l 1
 426 783 l 1
 340 940 l 1
 426 940 l 1
 504 843 l 1
 505 843 l 1
 621 940 l 1
 708 940 l 1
EndSplineSet
EndChar
StartChar: scaron
Encoding: 154 353 103
Width: 556
Flags: MW
HStem: -12 90<241 305.5 241 340.5> 458 90<359.5 413>
VStem: 137 148<386 414> 386 155<126.5 155>
LayerCount: 2
Fore
SplineSet
64 18 m 1
 85 123 l 1
 159 91 214 78 268 78 c 0
 343 78 386 102 386 144 c 0
 386 166 365 184 313 207 c 2
 269 227 l 2
 159 275 137 296 137 355 c 0
 137 473 238 548 399 548 c 0
 450 548 502 542 570 529 c 1
 550 430 l 1
 477 450 432 458 394 458 c 0
 325 458 285 435 285 396 c 0
 285 376 303 361 353 340 c 2
 391 324 l 2
 512 274 541 246 541 185 c 0
 541 68 425 -12 256 -12 c 0xf0
 190 -12 131 -3 64 18 c 1
623 783 m 1
 474 626 l 1
 340 626 l 1
 254 783 l 1
 341 783 l 1
 419 686 l 1
 420 686 l 1
 535 783 l 1
 623 783 l 1
EndSplineSet
EndChar
StartChar: Tcommaaccent
Encoding: 282 354 53
Width: 611
Flags: MW
HStem: -211 52<242.5 253 224.5 293> 0 20 624 99<164 355 144 736 506 506 506 716>
VStem: 297 97<-136 -113>
LayerCount: 2
Fore
SplineSet
230 0 m 1
 355 624 l 1
 144 624 l 1
 164 723 l 1
 736 723 l 1
 716 624 l 1
 506 624 l 1
 381 0 l 1
 230 0 l 1
276 0 m 1
 342 0 l 1
 294 -55 l 1
 364 -64 394 -84 394 -121 c 0
 394 -170 330 -211 256 -211 c 0
 229 -211 200 -206 166 -196 c 1
 175 -152 l 1
 198 -157 217 -159 232 -159 c 0
 274 -159 297 -147 297 -125 c 0
 297 -101 268 -89 209 -89 c 2
 199 -89 l 1
 276 0 l 1
EndSplineSet
EndChar
StartChar: tcommaaccent
Encoding: 317 355 117
Width: 333
Flags: W
HStem: -211 52<141.5 152 123.5 192> -12 20 0 20 446 90<138 168 120 186 331 409>
VStem: 105 146<108 110.5> 196 97<-136 -113>
LayerCount: 2
Fore
SplineSet
342 91 m 1x58
 324 0 l 1xa4
 282 -8 254 -12 228 -12 c 0
 146 -12 105 26 105 102 c 0
 105 119 108 146 111 164 c 2
 168 446 l 1
 120 446 l 1
 138 536 l 1
 186 536 l 1
 204 626 l 1
 352 643 l 1
 331 536 l 1
 427 536 l 1
 409 446 l 1
 313 446 l 1
 260 183 l 2
 254 153 251 132 251 120 c 0
 251 96 265 84 292 84 c 0
 305 84 321 86 342 91 c 1x58
176 0 m 1
 242 0 l 1
 194 -55 l 1
 263 -64 293 -84 293 -121 c 0
 293 -170 229 -211 155 -211 c 0
 128 -211 100 -206 66 -196 c 1
 75 -152 l 1
 98 -157 116 -159 131 -159 c 0
 173 -159 196 -147 196 -125 c 0
 196 -101 167 -89 109 -89 c 2
 99 -89 l 1
 176 0 l 1
EndSplineSet
EndChar
StartChar: Tcaron
Encoding: 275 356 41
Width: 611
Flags: MW
HStem: 0 20 624 99<164 355 144 736 506 506 506 716>
LayerCount: 2
Fore
SplineSet
230 0 m 1
 355 624 l 1
 144 624 l 1
 164 723 l 1
 736 723 l 1
 716 624 l 1
 506 624 l 1
 381 0 l 1
 230 0 l 1
678 940 m 1
 529 783 l 1
 395 783 l 1
 310 940 l 1
 396 940 l 1
 474 843 l 1
 475 843 l 1
 591 940 l 1
 678 940 l 1
EndSplineSet
EndChar
StartChar: tcaron
Encoding: 311 357 105
Width: 479
Flags: W
HStem: -12 20 0 20 446 90<139 169 121 188 332 410>
VStem: 106 146<108 110.5>
LayerCount: 2
Fore
SplineSet
344 91 m 1xb0
 326 0 l 1x50
 283 -8 255 -12 230 -12 c 0
 147 -12 106 26 106 102 c 0
 106 119 109 142 113 164 c 2
 169 446 l 1
 121 446 l 1
 139 536 l 1
 188 536 l 1
 206 626 l 1
 354 643 l 1
 332 536 l 1
 428 536 l 1
 410 446 l 1
 314 446 l 1
 261 183 l 2
 254 148 252 132 252 120 c 0
 252 96 266 84 293 84 c 0
 307 84 323 86 344 91 c 1xb0
529 699 m 1
 473 699 l 1
 502 843 l 1
 628 843 l 1
 606 731 l 2
 583 619 531 562 444 554 c 1
 454 604 l 1
 492 604 515 630 526 684 c 2
 529 699 l 1
EndSplineSet
EndChar
StartChar: Umacron
Encoding: 292 362 64
Width: 722
Flags: MW
HStem: -18 100<351.5 418.5> 703 20<224 374 374 374 658 789 789 789> 784 84<348 726 365 709>
VStem: 122 153<153 186>
LayerCount: 2
Fore
SplineSet
224 723 m 1
 374 723 l 1
 286 280 l 2
 279 247 275 212 275 188 c 0
 275 118 314 82 389 82 c 0
 483 82 542 144 567 269 c 2
 658 723 l 1
 789 723 l 1
 700 279 l 2
 680 177 656 121 614 77 c 0
 554 14 470 -18 367 -18 c 0
 214 -18 122 54 122 172 c 0
 122 200 126 236 135 280 c 2
 224 723 l 1
348 784 m 1
 365 868 l 1
 726 868 l 1
 709 784 l 1
 348 784 l 1
EndSplineSet
EndChar
StartChar: umacron
Encoding: 326 363 126
Width: 611
Flags: W
HStem: -12 20 0 20 516 20<174 318 318 318 501 646 646 646> 627 84<247 625 264 608>
LayerCount: 2
Fore
SplineSet
394 0 m 1
 412 89 l 1
 337 18 277 -12 207 -12 c 0x80
 130 -12 91 24 91 95 c 0
 91 112 94 139 97 157 c 2
 174 536 l 1
 318 536 l 1
 249 193 l 2
 246 177 243 153 243 143 c 0
 243 116 259 102 288 102 c 0
 328 102 371 127 431 186 c 1
 501 536 l 1
 646 536 l 1
 539 0 l 1x60
 394 0 l 1
247 627 m 1
 264 711 l 1
 625 711 l 1
 608 627 l 1x10
 247 627 l 1
EndSplineSet
EndChar
StartChar: Uring
Encoding: 276 366 46
Width: 722
Flags: MW
HStem: -18 100<351.5 418.5> 703 20<224 374 374 374 658 789 789 789> 783 54<522 558 522 564> 958 54<544 580>
VStem: 122 153<153 186> 434 55<869.5 904.5 869.5 911> 613 55<890.5 925.5>
LayerCount: 2
Fore
SplineSet
224 723 m 1
 374 723 l 1
 286 280 l 2
 279 247 275 212 275 188 c 0
 275 118 314 82 389 82 c 0
 483 82 542 144 567 269 c 2
 658 723 l 1
 789 723 l 1
 700 279 l 2
 680 177 656 121 614 77 c 0
 554 14 470 -18 367 -18 c 0
 214 -18 122 54 122 172 c 0
 122 200 126 236 135 280 c 2
 224 723 l 1
574 1012 m 0
 629 1012 668 974 668 920 c 0
 668 848 601 783 527 783 c 0
 473 783 434 821 434 875 c 0
 434 947 500 1012 574 1012 c 0
564 958 m 0
 524 958 489 924 489 885 c 0
 489 854 506 837 538 837 c 0
 578 837 613 871 613 910 c 0
 613 941 596 958 564 958 c 0
EndSplineSet
EndChar
StartChar: uring
Encoding: 312 367 110
Width: 611
Flags: W
HStem: -12 20 0 20 516 20<174 318 318 318 501 646 646 646> 626 54<422.5 457.5 422.5 464.5> 802 54<444 479.5>
VStem: 91 56 269 56
LayerCount: 2
Fore
SplineSet
394 0 m 1
 412 89 l 1
 337 18 277 -12 207 -12 c 0x80
 130 -12 91 24 91 95 c 0
 91 112 94 139 97 157 c 2
 174 536 l 1
 318 536 l 1
 249 193 l 2
 246 177 243 153 243 143 c 0
 243 116 259 102 288 102 c 0
 328 102 371 127 431 186 c 1
 501 536 l 1
 646 536 l 1
 539 0 l 1x60
 394 0 l 1
474 856 m 0
 529 856 568 818 568 764 c 0
 568 691 502 626 427 626 c 0
 373 626 334 664 334 718 c 0x1e
 334 791 400 856 474 856 c 0
464 802 m 0
 424 802 390 768 390 728 c 0
 390 697 407 680 438 680 c 0
 477 680 512 714 512 754 c 0
 512 785 495 802 464 802 c 0
EndSplineSet
EndChar
StartChar: Uhungarumlaut
Encoding: 277 368 47
Width: 722
Flags: MW
HStem: -18 100<351.5 418.5> 703 20<224 374 374 374 658 789 789 789>
VStem: 122 153<153 186>
LayerCount: 2
Fore
SplineSet
224 723 m 1
 374 723 l 1
 286 280 l 2
 279 247 275 212 275 188 c 0
 275 118 314 82 389 82 c 0
 483 82 542 144 567 269 c 2
 658 723 l 1
 789 723 l 1
 700 279 l 2
 680 177 656 121 614 77 c 0
 554 14 470 -18 367 -18 c 0
 214 -18 122 54 122 172 c 0
 122 200 126 236 135 280 c 2
 224 723 l 1
374 783 m 1
 523 940 l 1
 635 940 l 1
 447 783 l 1
 374 783 l 1
558 783 m 1
 707 940 l 1
 818 940 l 1
 630 783 l 1
 558 783 l 1
EndSplineSet
EndChar
StartChar: uhungarumlaut
Encoding: 313 369 111
Width: 611
Flags: W
HStem: -12 20 0 20 516 20<174 318 318 318 501 646 646 646>
LayerCount: 2
Fore
SplineSet
394 0 m 1
 412 89 l 1
 337 18 277 -12 207 -12 c 0x80
 130 -12 91 24 91 95 c 0
 91 112 94 139 97 157 c 2
 174 536 l 1
 318 536 l 1
 249 193 l 2
 246 177 243 153 243 143 c 0
 243 116 259 102 288 102 c 0
 328 102 371 127 431 186 c 1
 501 536 l 1
 646 536 l 1
 539 0 l 1x60
 394 0 l 1
264 626 m 1
 412 783 l 1
 524 783 l 1
 336 626 l 1
 264 626 l 1
448 626 m 1
 597 783 l 1
 708 783 l 1
 520 626 l 1
 448 626 l 1
EndSplineSet
EndChar
StartChar: Uogonek
Encoding: 293 370 65
Width: 722
Flags: W
HStem: -181 46<404 404.5> -18 100<351.5 418.5> 0 20 703 20<224 374 374 374 658 789 789 789>
VStem: 122 153<153 186> 257 100<-109 -93>
LayerCount: 2
Fore
SplineSet
224 723 m 1x58
 374 723 l 1
 286 280 l 2
 279 247 275 212 275 188 c 0
 275 118 314 82 389 82 c 0
 483 82 542 144 567 269 c 2
 658 723 l 1
 789 723 l 1
 700 279 l 2
 680 177 656 121 614 77 c 0
 554 14 470 -18 367 -18 c 0
 214 -18 122 54 122 172 c 0
 122 200 126 236 135 280 c 2
 224 723 l 1x58
389 0 m 1xa4
 466 0 l 1
 389 -34 357 -63 357 -96 c 0
 357 -122 381 -135 427 -135 c 0
 454 -135 476 -132 495 -127 c 1
 487 -167 l 1
 454 -177 423 -181 386 -181 c 0
 301 -181 257 -158 257 -115 c 0
 257 -71 296 -37 389 0 c 1xa4
EndSplineSet
EndChar
StartChar: uogonek
Encoding: 327 371 127
Width: 611
Flags: W
HStem: -181 46<348.5 447> -12 20 0 20 516 20<174 318 318 318 501 646 646 646>
VStem: 262 100<-109 -93>
LayerCount: 2
Fore
SplineSet
394 0 m 1xb8
 412 89 l 1
 337 18 277 -12 207 -12 c 0x48
 130 -12 91 24 91 95 c 0
 91 112 94 139 97 157 c 2
 174 536 l 1
 318 536 l 1
 249 193 l 2
 246 178 243 152 243 143 c 0
 243 115 259 101 288 101 c 0
 328 101 371 126 431 186 c 1
 501 536 l 1
 646 536 l 1
 539 0 l 1
 394 0 l 1
 471 0 l 1
 395 -34 362 -63 362 -96 c 0
 362 -122 386 -135 434 -135 c 0
 460 -135 481 -132 500 -127 c 1
 492 -167 l 1
 459 -177 429 -181 391 -181 c 0
 306 -181 262 -158 262 -115 c 0
 262 -71 302 -37 394 0 c 1xb8
EndSplineSet
EndChar
StartChar: Ydieresis
Encoding: 159 376 54
Width: 667
Flags: MW
HStem: 0 20 703 20<158 325 325 325 679 798 798 798> 784 108<357 487 379 466 584 670 379 562>
LayerCount: 2
Fore
SplineSet
253 0 m 1
 314 303 l 1
 158 723 l 1
 325 723 l 1
 436 418 l 1
 679 723 l 1
 798 723 l 1
 465 304 l 1
 404 0 l 1
 253 0 l 1
357 784 m 1
 379 892 l 1
 487 892 l 1
 466 784 l 1
 357 784 l 1
562 784 m 1
 584 892 l 1
 692 892 l 1
 670 784 l 1
 562 784 l 1
EndSplineSet
EndChar
StartChar: Zacute
Encoding: 278 377 49
Width: 611
Flags: MW
HStem: 0 103<46 67 67 67 241 566> 624 99<212 515 192 710 690 690>
LayerCount: 2
Fore
SplineSet
46 0 m 1
 67 103 l 1
 515 624 l 1
 192 624 l 1
 212 723 l 1
 710 723 l 1
 690 624 l 1
 241 103 l 1
 586 103 l 1
 566 0 l 1
 46 0 l 1
369 783 m 1
 518 940 l 1
 650 940 l 1
 463 783 l 1
 369 783 l 1
EndSplineSet
EndChar
StartChar: zacute
Encoding: 314 378 113
Width: 500
Flags: MW
HStem: 0 96<54 73 73 73 235 451> 446 90<175 373 157 553 535 535>
LayerCount: 2
Fore
SplineSet
54 0 m 1
 73 96 l 1
 373 446 l 1
 157 446 l 1
 175 536 l 1
 553 536 l 1
 535 446 l 1
 235 96 l 1
 471 96 l 1
 451 0 l 1xc0
 54 0 l 1
285 626 m 1
 433 783 l 1
 566 783 l 1
 378 626 l 1
 285 626 l 1
EndSplineSet
EndChar
StartChar: Zdotaccent
Encoding: 280 379 51
Width: 611
Flags: MW
HStem: 0 103<46 67 67 67 241 566> 624 99<212 515 192 710 690 690> 783 145<400 574 429 545>
LayerCount: 2
Fore
SplineSet
46 0 m 1
 67 103 l 1
 515 624 l 1
 192 624 l 1
 212 723 l 1
 710 723 l 1
 690 624 l 1
 241 103 l 1
 586 103 l 1
 566 0 l 1
 46 0 l 1
400 783 m 1
 429 928 l 1
 574 928 l 1
 545 783 l 1
 400 783 l 1
EndSplineSet
EndChar
StartChar: zdotaccent
Encoding: 316 380 115
Width: 500
Flags: MW
HStem: 0 96<54 73 73 73 235 451> 446 90<175 373 157 553 535 535> 626 145<309 482 338 454>
LayerCount: 2
Fore
SplineSet
54 0 m 1
 73 96 l 1
 373 446 l 1
 157 446 l 1
 175 536 l 1
 553 536 l 1
 535 446 l 1
 235 96 l 1
 471 96 l 1
 451 0 l 1xc0
 54 0 l 1
309 626 m 1
 338 771 l 1
 482 771 l 1
 454 626 l 1x20
 309 626 l 1
EndSplineSet
EndChar
StartChar: Zcaron
Encoding: 279 381 50
Width: 611
Flags: MW
HStem: 0 103<46 67 67 67 241 566> 624 99<212 515 192 710 690 690>
LayerCount: 2
Fore
SplineSet
46 0 m 1
 67 103 l 1
 515 624 l 1
 192 624 l 1
 212 723 l 1
 710 723 l 1
 690 624 l 1
 241 103 l 1
 586 103 l 1
 566 0 l 1
 46 0 l 1
689 940 m 1
 540 783 l 1
 406 783 l 1
 320 940 l 1
 407 940 l 1
 484 843 l 1
 485 843 l 1
 601 940 l 1
 689 940 l 1
EndSplineSet
EndChar
StartChar: zcaron
Encoding: 315 382 114
Width: 500
Flags: MW
HStem: 0 96<54 73 73 73 235 451> 446 90<175 373 157 553 535 535>
LayerCount: 2
Fore
SplineSet
54 0 m 1
 73 96 l 1
 373 446 l 1
 157 446 l 1
 175 536 l 1
 553 536 l 1
 535 446 l 1
 235 96 l 1
 471 96 l 1
 451 0 l 1xc0
 54 0 l 1
598 783 m 1
 449 626 l 1
 315 626 l 1
 229 783 l 1
 316 783 l 1
 394 686 l 1
 395 686 l 1
 510 783 l 1
 598 783 l 1
EndSplineSet
EndChar
StartChar: florin
Encoding: 131 402 216
Width: 556
Flags: MW
HStem: 341 90<134 188 116 224 372 440> 651 90<524 571.5>
LayerCount: 2
Fore
SplineSet
-5 -145 m 1
 188 341 l 1
 116 341 l 1
 134 431 l 1
 224 431 l 1
 243 475 l 2
 316 653 427 741 580 741 c 0
 614 741 648 738 677 732 c 1
 658 633 l 1
 619 645 586 651 557 651 c 0
 491 651 441 607 406 517 c 2
 372 431 l 1
 458 431 l 1
 440 341 l 1
 336 341 l 1
 142 -145 l 1
 -5 -145 l 1
EndSplineSet
EndChar
StartChar: Scommaaccent
Encoding: 332 536 132
Width: 667
Flags: MW
HStem: -211 51<285.5 291.5 262 334.5> -18 99<282 365> 642 99<421 518.5>
VStem: 151 156<528 573.5> 338 97<-136.5 -116.5> 509 166<163.5 283.5>
LayerCount: 2
Fore
SplineSet
51 6 m 1
 75 129 l 1
 171 95 242 81 322 81 c 0
 443 81 509 124 509 203 c 0
 509 232 493 254 461 267 c 2
 400 292 l 1
 326 322 l 2
 191 378 151 417 151 495 c 0
 151 652 276 741 496 741 c 0
 574 741 645 733 722 716 c 1
 699 602 l 1
 619 630 556 642 481 642 c 0
 361 642 307 611 307 542 c 0
 307 514 326 494 373 475 c 2
 424 453 l 1
 501 423 l 2
 619 375 675 319 675 248 c 0
 675 194 654 136 620 93 c 0
 561 19 448 -18 282 -18 c 0
 232 -18 178 -14 126 -5 c 2
 51 6 l 1
263 -96 m 1
 273 -47 l 1
 386 -49 435 -71 435 -120 c 0
 435 -170 372 -211 297 -211 c 0
 274 -211 247 -209 205 -205 c 1
 215 -157 l 1
 236 -159 255 -160 269 -160 c 0
 314 -160 338 -148 338 -125 c 0
 338 -108 320 -99 281 -97 c 2
 263 -96 l 1
EndSplineSet
EndChar
StartChar: scommaaccent
Encoding: 310 537 104
Width: 556
Flags: MW
HStem: -211 51<226.5 232.5 203 275> -12 90<241 305.5 241 340.5> 458 90<359.5 413>
VStem: 137 148<386 414> 197 96 386 155<126.5 155>
LayerCount: 2
Fore
SplineSet
64 18 m 1
 85 123 l 1
 159 91 214 78 268 78 c 0
 343 78 386 102 386 144 c 0
 386 166 365 184 313 207 c 2
 269 227 l 2
 159 275 137 296 137 355 c 0
 137 473 238 548 399 548 c 0
 450 548 502 542 570 529 c 1
 550 430 l 1
 477 450 432 458 394 458 c 0
 325 458 285 435 285 396 c 0
 285 376 303 361 353 340 c 2
 391 324 l 2
 512 274 541 246 541 185 c 0
 541 68 425 -12 256 -12 c 0x74
 190 -12 131 -3 64 18 c 1
204 -96 m 1
 214 -47 l 1
 326 -49 375 -71 375 -120 c 0
 375 -170 312 -211 238 -211 c 0
 215 -211 188 -209 146 -205 c 1
 156 -157 l 1
 176 -159 196 -160 210 -160 c 0
 255 -160 279 -148 279 -125 c 0
 279 -108 261 -99 222 -97 c 2x88
 204 -96 l 1
EndSplineSet
EndChar
StartChar: circumflex
Encoding: 136 710 286
Width: 333
Flags: W
LayerCount: 2
Fore
SplineSet
107 626 m 1
 255 783 l 1
 389 783 l 1
 475 626 l 1
 388 626 l 1
 311 722 l 1
 310 722 l 1
 194 626 l 1
 107 626 l 1
EndSplineSet
EndChar
StartChar: caron
Encoding: 345 711 287
Width: 333
Flags: W
LayerCount: 2
Fore
SplineSet
508 783 m 1
 359 626 l 1
 225 626 l 1
 139 783 l 1
 226 783 l 1
 304 686 l 1
 305 686 l 1
 420 783 l 1
 508 783 l 1
EndSplineSet
EndChar
StartChar: breve
Encoding: 346 728 288
Width: 333
Flags: MW
HStem: 627 87<283 336.5 283 339.5>
LayerCount: 2
Fore
SplineSet
150 783 m 1
 223 783 l 1
 229 735 256 714 310 714 c 0
 363 714 397 735 423 783 c 1
 496 783 l 1
 462 685 387 627 292 627 c 0
 210 627 149 682 149 756 c 2x80
 150 783 l 1
EndSplineSet
EndChar
StartChar: dotaccent
Encoding: 343 729 282
Width: 333
Flags: MW
HStem: 626 145<220 393 249 365>
LayerCount: 2
Fore
SplineSet
220 626 m 1
 249 771 l 1
 393 771 l 1
 365 626 l 1x80
 220 626 l 1
EndSplineSet
EndChar
StartChar: ring
Encoding: 344 730 283
Width: 333
Flags: MW
HStem: 626 54<288.5 323.5 288.5 330.5> 802 54<310 345.5>
VStem: 200 56<712.5 748 712.5 754.5> 378 56<734 769.5>
LayerCount: 2
Fore
SplineSet
340 856 m 0
 395 856 434 818 434 764 c 0
 434 691 368 626 293 626 c 0
 239 626 200 664 200 718 c 0xf0
 200 791 266 856 340 856 c 0
330 802 m 0
 290 802 256 768 256 728 c 0
 256 697 273 680 304 680 c 0
 343 680 378 714 378 754 c 0
 378 785 361 802 330 802 c 0
EndSplineSet
EndChar
StartChar: ogonek
Encoding: 348 731 292
Width: 333
Flags: MW
HStem: -181 46<172.5 173.5> 0 20
VStem: 25 100<-109 -93>
LayerCount: 2
Fore
SplineSet
157 0 m 1
 234 0 l 1
 158 -34 125 -63 125 -96 c 0
 125 -122 149 -135 196 -135 c 0
 223 -135 244 -132 263 -127 c 1
 255 -167 l 1
 222 -177 192 -181 155 -181 c 0
 69 -181 25 -158 25 -115 c 0xe0
 25 -71 65 -37 157 0 c 1
EndSplineSet
EndChar
StartChar: tilde
Encoding: 152 732 289
Width: 333
Flags: W
HStem: 626 91<372 387.5 372 397.5> 693 90<226.5 242>
LayerCount: 2
Fore
SplineSet
192 626 m 1
 120 626 l 1
 145 736 184 783 249 783 c 0x40
 270 783 289 776 307 762 c 2
 323 750 l 2
 325 749 326 747 329 745 c 0
 332 742 333 741 336 739 c 0
 355 724 367 717 377 717 c 0
 398 717 412 738 422 783 c 1
 495 783 l 1
 469 674 430 626 365 626 c 0x80
 344 626 327 632 308 647 c 2
 291 660 l 1
 286 664 l 1
 283 667 l 2
 280 669 280 669 278 671 c 0
 266 683 247 693 237 693 c 0x40
 216 693 202 672 192 626 c 1
EndSplineSet
EndChar
StartChar: hungarumlaut
Encoding: 347 733 290
Width: 333
Flags: W
LayerCount: 2
Fore
SplineSet
85 626 m 1
 233 783 l 1
 345 783 l 1
 157 626 l 1
 85 626 l 1
269 626 m 1
 418 783 l 1
 529 783 l 1
 341 626 l 1
 269 626 l 1
EndSplineSet
EndChar
StartChar: endash
Encoding: 150 8211 243
Width: 556
Flags: MW
HStem: 262 78<96 582 112 566>
LayerCount: 2
Fore
SplineSet
96 262 m 1
 112 340 l 1
 582 340 l 1
 566 262 l 1
 96 262 l 1
EndSplineSet
EndChar
StartChar: emdash
Encoding: 151 8212 244
Width: 1000
Flags: MW
HStem: 262 60<92 1026 104 1014>
LayerCount: 2
Fore
SplineSet
92 262 m 1
 104 322 l 1
 1026 322 l 1
 1014 262 l 1
 92 262 l 1
EndSplineSet
EndChar
StartChar: quoteleft
Encoding: 145 8216 228
Width: 278
Flags: W
LayerCount: 2
Fore
SplineSet
279 614 m 1
 340 614 l 1
 308 458 l 1
 152 458 l 1
 176 579 l 2
 202 707 267 771 371 771 c 1
 360 717 l 1
 320 717 294 688 282 630 c 2
 279 614 l 1
EndSplineSet
EndChar
StartChar: quoteright
Encoding: 146 8217 268
Width: 278
Flags: W
LayerCount: 2
Fore
SplineSet
243 614 m 1
 183 614 l 1
 215 771 l 1
 371 771 l 1
 347 650 l 2
 321 521 256 458 152 458 c 1
 163 512 l 1
 203 512 229 541 240 599 c 2
 243 614 l 1
EndSplineSet
EndChar
StartChar: quotesinglbase
Encoding: 130 8218 267
Width: 278
Flags: MW
HStem: 0 20
LayerCount: 2
Fore
SplineSet
120 0 m 1
 60 0 l 1
 92 157 l 1
 248 157 l 1
 224 35 l 2
 198 -93 133 -156 29 -156 c 1
 40 -102 l 1
 80 -102 106 -73 117 -15 c 2
 120 0 l 1
EndSplineSet
EndChar
StartChar: quotedblleft
Encoding: 147 8220 230
Width: 500
Flags: W
LayerCount: 2
Fore
SplineSet
277 615 m 1
 331 615 l 1
 302 470 l 1
 157 470 l 1
 179 579 l 2
 204 700 263 762 362 771 c 1
 351 717 l 1
 313 707 289 677 280 630 c 2
 277 615 l 1
506 615 m 1
 560 615 l 1
 531 470 l 1
 386 470 l 1
 408 579 l 2
 433 700 492 762 591 771 c 1
 580 717 l 1
 542 707 518 677 509 630 c 2
 506 615 l 1
EndSplineSet
EndChar
StartChar: quotedblright
Encoding: 148 8221 229
Width: 500
Flags: W
LayerCount: 2
Fore
SplineSet
243 626 m 1
 189 626 l 1
 218 771 l 1
 362 771 l 1
 340 662 l 2
 315 541 256 479 157 470 c 1
 168 524 l 1
 207 535 229 562 240 611 c 2
 243 626 l 1
471 626 m 1
 417 626 l 1
 447 771 l 1
 591 771 l 1
 569 662 l 2
 544 541 485 479 386 470 c 1
 397 524 l 1
 435 534 459 563 469 611 c 2
 471 626 l 1
EndSplineSet
EndChar
StartChar: quotedblbase
Encoding: 132 8222 231
Width: 500
Flags: MW
HStem: 0 20
LayerCount: 2
Fore
SplineSet
117 0 m 1
 63 0 l 1
 92 145 l 1
 237 145 l 1
 215 36 l 2
 190 -84 130 -147 32 -156 c 1
 43 -102 l 1
 81 -92 105 -62 115 -15 c 2
 117 0 l 1
346 0 m 1
 292 0 l 1
 321 145 l 1
 466 145 l 1
 444 36 l 2
 419 -85 360 -147 261 -156 c 1
 272 -102 l 1
 310 -92 334 -62 344 -15 c 2
 346 0 l 1
EndSplineSet
EndChar
StartChar: dagger
Encoding: 134 8224 251
Width: 556
Flags: MW
HStem: 703 20<351 495 495 495>
LayerCount: 2
Fore
SplineSet
177 -145 m 1
 296 392 l 1
 122 379 l 1
 144 488 l 1
 313 476 l 1
 351 723 l 1
 495 723 l 1
 434 476 l 1
 608 488 l 1
 586 379 l 1
 417 392 l 1
 322 -145 l 1
 177 -145 l 1
EndSplineSet
EndChar
StartChar: daggerdbl
Encoding: 135 8225 252
Width: 556
Flags: MW
HStem: 703 20<350 495 495 495>
LayerCount: 2
Fore
SplineSet
177 -145 m 1
 238 102 l 1
 64 90 l 1
 85 199 l 1
 255 186 l 1
 296 392 l 1
 122 379 l 1
 144 488 l 1
 313 476 l 1
 350 723 l 1
 495 723 l 1
 433 476 l 1
 607 488 l 1
 585 379 l 1
 417 392 l 1
 376 186 l 1
 549 199 l 1
 528 90 l 1
 358 102 l 1
 321 -145 l 1
 177 -145 l 1
EndSplineSet
EndChar
StartChar: ellipsis
Encoding: 133 8230 225
Width: 1000
Flags: MW
HStem: 0 157<88 276 119 245 453 578 119 421 786 911>
LayerCount: 2
Fore
SplineSet
88 0 m 1
 119 157 l 1
 276 157 l 1
 245 0 l 1
 88 0 l 1
421 0 m 1
 453 157 l 1
 609 157 l 1
 578 0 l 1
 421 0 l 1
755 0 m 1
 786 157 l 1
 942 157 l 1
 911 0 l 1
 755 0 l 1
EndSplineSet
EndChar
StartChar: perthousand
Encoding: 137 8240 279
Width: 1000
Flags: W
HStem: -18 20 0 72<483.5 519 483.5 537 837 872> 289 72<518.5 554 872 907> 362 72<236.5 272 236.5 290> 651 72<271.5 307.5> 721 20<704 779 779 779>
VStem: 113 97<474.5 536.5 474.5 557> 334 96<548.5 610.5> 360 97<112.5 174.5 112.5 194.5> 580 97<186.5 248.5> 714 97<112 174 112 194.5> 933 97<186.5 248.5>
LayerCount: 2
Fore
SplineSet
308 723 m 0x7b
 390 723 430 681 430 595 c 0
 430 460 347 362 233 362 c 0
 153 362 113 405 113 490 c 0
 113 624 196 723 308 723 c 0x7b
294 651 m 0
 249 651 210 578 210 495 c 0
 210 454 223 434 250 434 c 0
 294 434 334 507 334 590 c 0
 334 631 321 651 294 651 c 0
555 361 m 0
 636 361 677 319 677 233 c 0
 677 98 594 0 480 0 c 0
 400 0 360 43 360 128 c 0x78f0
 360 261 443 361 555 361 c 0
541 289 m 0
 496 289 457 216 457 133 c 0
 457 92 470 72 497 72 c 0
 541 72 580 145 580 228 c 0
 580 269 567 289 541 289 c 0
908 361 m 0
 990 361 1030 319 1030 233 c 0
 1030 98 947 0 834 0 c 0
 754 0 714 43 714 128 c 0
 714 261 797 361 908 361 c 0
894 289 m 0
 850 289 811 216 811 132 c 0
 811 92 824 72 850 72 c 0
 894 72 933 145 933 228 c 0
 933 269 920 289 894 289 c 0
12 -18 m 1x84f0
 704 741 l 1
 779 741 l 1
 86 -18 l 1
 12 -18 l 1x84f0
EndSplineSet
EndChar
StartChar: guilsinglleft
Encoding: 139 8249 239
Width: 333
Flags: W
LayerCount: 2
Fore
SplineSet
387 434 m 1
 226 268 l 1
 321 103 l 1
 243 51 l 1
 83 268 l 1
 330 485 l 1
 387 434 l 1
EndSplineSet
EndChar
StartChar: guilsinglright
Encoding: 155 8250 238
Width: 333
Flags: W
LayerCount: 2
Fore
SplineSet
52 103 m 1
 213 268 l 1
 118 434 l 1
 196 485 l 1
 356 268 l 1
 110 51 l 1
 52 103 l 1
EndSplineSet
EndChar
StartChar: fraction
Encoding: 342 8260 277
Width: 167
Flags: MW
HStem: -18 20 721 20<464 538 538 538>
LayerCount: 2
Fore
SplineSet
-228 -18 m 1
 464 741 l 1
 538 741 l 1
 -154 -18 l 1
 -228 -18 l 1
EndSplineSet
EndChar
StartChar: Euro
Encoding: 128 8364 217
Width: 556
Flags: MW
HStem: -18 96<369 399> 235 84<47 127 94 123 272 427> 416 84<130 147 83 179 323 529> 645 97<488 547>
LayerCount: 2
Fore
SplineSet
47 235 m 1
 94 319 l 1
 127 319 l 1
 131 352 139 387 147 416 c 1
 83 416 l 1
 130 500 l 1
 179 500 l 1
 220 581 251 622 300 663 c 0
 364 716 442 742 534 742 c 0
 581 742 622 736 664 723 c 1
 643 618 l 1
 604 637 568 645 526 645 c 0
 439 645 379 602 323 500 c 1
 576 500 l 1
 529 416 l 1
 291 416 l 1
 283 387 276 353 272 319 c 1
 475 319 l 1
 427 235 l 1
 270 235 l 1
 282 117 319 78 419 78 c 0
 457 78 495 86 540 104 c 1
 520 4 l 1
 473 -11 426 -18 372 -18 c 0
 290 -18 230 3 188 48 c 0
 147 90 131 139 123 235 c 1
 47 235 l 1
EndSplineSet
EndChar
StartChar: trademark
Encoding: 153 8482 264
Width: 1000
Flags: MW
HStem: 663 60<241 360 229 600 457 457 457 588>
LayerCount: 2
Fore
SplineSet
300 361 m 1
 360 663 l 1
 229 663 l 1
 241 723 l 1
 600 723 l 1
 588 663 l 1
 457 663 l 1
 396 361 l 1
 300 361 l 1
591 361 m 1
 663 723 l 1
 787 723 l 1
 817 492 l 1
 941 723 l 1
 1048 723 l 1
 976 361 l 1
 889 361 l 1
 939 615 l 1
 815 386 l 1
 745 386 l 1
 715 621 l 1
 663 361 l 1
 591 361 l 1
EndSplineSet
EndChar
StartChar: minus
Encoding: 341 8722 260
Width: 584
Flags: MW
HStem: 248 84<101 600 118 583>
LayerCount: 2
Fore
SplineSet
101 248 m 1
 118 332 l 1
 600 332 l 1
 583 248 l 1
 101 248 l 1
EndSplineSet
EndChar
StartChar: fi
Encoding: 336 64257 197
Width: 611
Flags: W
HStem: 0 20 446 90<134 171 116 189 334 490> 626 121<550 694 574 670> 691 92<409.5 441.5>
LayerCount: 2
Fore
SplineSet
82 0 m 1xd0
 171 446 l 1
 116 446 l 1
 134 536 l 1
 189 536 l 1
 197 573 l 2
 223 707 305 783 423 783 c 0
 460 783 496 777 536 763 c 1
 516 664 l 1
 478 682 451 691 432 691 c 0
 387 691 358 651 341 569 c 2
 334 536 l 1
 652 536 l 1
 545 0 l 1
 400 0 l 1
 490 446 l 1
 316 446 l 1
 227 0 l 1
 82 0 l 1xd0
550 626 m 1x20
 574 747 l 1
 694 747 l 1
 670 626 l 1
 550 626 l 1x20
EndSplineSet
EndChar
StartChar: fl
Encoding: 337 64258 198
Width: 611
Flags: MW
HStem: 0 20 446 90<134 171 116 189 334 420> 694 89<431 443.5 369 474.5>
LayerCount: 2
Fore
SplineSet
82 0 m 1
 171 446 l 1
 116 446 l 1
 134 536 l 1
 189 536 l 1
 196 570 l 2
 225 712 304 783 434 783 c 0
 453 783 495 779 514 776 c 0
 534 773 547 771 550 771 c 2
 699 771 l 1
 545 0 l 1
 400 0 l 1
 536 677 l 1
 509 689 486 694 463 694 c 0
 399 694 357 655 343 581 c 2
 334 536 l 1
 438 536 l 1
 420 446 l 1
 316 446 l 1
 227 0 l 1
 82 0 l 1
EndSplineSet
EndChar
StartChar: commaaccent
Encoding: 350 -1 294
Width: 333
Flags: MW
HStem: -211 51<99.5 105.5 76 148>
VStem: 152 96<-136.5 -116.5>
LayerCount: 2
Fore
SplineSet
77 -96 m 1
 87 -47 l 1
 199 -49 248 -71 248 -120 c 0
 248 -170 185 -211 111 -211 c 0
 88 -211 61 -209 19 -205 c 1
 29 -157 l 1
 49 -159 69 -160 83 -160 c 0
 128 -160 152 -148 152 -125 c 0
 152 -108 134 -99 95 -97 c 2xc0
 77 -96 l 1
EndSplineSet
EndChar
